<?xml version="1.0" encoding="utf-8"?>
<!-- Generator: Adobe Illustrator 16.0.0, SVG Export Plug-In . SVG Version: 6.00 Build 0)  -->
<!DOCTYPE svg PUBLIC "-//W3C//DTD SVG 1.0//EN" "http://www.w3.org/TR/2001/REC-SVG-20010904/DTD/svg10.dtd">
<svg version="1.0" id="Layer_1" xmlns="http://www.w3.org/2000/svg" xmlns:xlink="http://www.w3.org/1999/xlink" x="0px" y="0px"
	 width="375.334px" height="360.667px" viewBox="0 0 375.334 360.667" enable-background="new 0 0 375.334 360.667"
	 xml:space="preserve">
<g>
	<g>
		<g>
			<path fill="#32191F" d="M167.373,78.727c0.287-0.508,0.575-1.017,1.007-1.781c-0.338-0.441-0.751-0.977-1.131-1.471
				c-0.434,0.121-0.795,0.111-0.972,0.287c-2.192,2.195-4.347,4.427-6.535,6.626c-0.827,0.83-1.612,1.704-3.042,1.424
				c-0.474-0.092-1.166,0.237-1.566,0.59c-3.316,2.933-6.593,5.91-9.86,8.896c-0.189,0.173-0.202,0.537-0.299,0.813
				c-0.954-0.219-1.142,0.583-1.515,1.138c-0.571,0.241-1.142,0.482-1.712,0.724c0.02,0.205,0.041,0.41,0.061,0.615
				c0.023-0.199,0.045-0.396,0.061-0.6c0.658-0.025,1.329-0.038,1.543-0.875c1.017,0.436,1.3-0.266,1.561-1.006
				c2.085,0.095,3.527-1.194,4.997-2.369c1.729-1.384,3.368-2.883,5.118-4.237c0.512-0.396,1.271-0.472,1.916-0.694l-0.046-0.081
				c-0.104,0.272-0.137,0.625-0.329,0.806c-2.586,2.424-5.125,4.904-7.811,7.214c-7.982,6.864-15.339,14.372-22.574,21.993
				c-4.278,4.506-8.133,9.417-12.451,13.883c-4.942,5.112-7.194,11.763-11.142,17.731c0.666-0.117,1.028-0.071,1.208-0.23
				c2.663-2.347,5.356-4.641,7.296-7.702c1.742-2.75,3.625-5.421,5.589-8.018c1.691-2.235,3.55-4.348,5.417-6.441
				c0.425-0.476,1.189-0.649,2.113-1.125c-0.272,0.807-0.316,1.283-0.56,1.611c-4.493,6.069-9.023,12.11-13.509,18.184
				c-1.06,1.435-2.15,2.745-3.653,3.809c-1.747,1.235-3.252,2.837-4.271,5.649c1.288-0.915,2.062-1.339,2.682-1.926
				c3.654-3.457,7.284-6.938,10.892-10.443c0.741-0.719,1.387-1.543,2.013-2.366c2.511-3.295,5.047-6.573,7.473-9.931
				c1.588-2.198,3.666-3.766,6.022-5.408c0.763,0.71,1.501,1.537,2.658,1.038c1.065-0.461,2.517-0.54,2.832-1.86
				c0.296-1.236,1.105-1.684,2.074-2.025c1.675-0.59,3.365-1.147,5.077-1.62c9.498-2.615,19.365-2.44,29.029-3.81
				c0.145-0.021,0.297-0.001,0.444,0.008c4.132,0.271,8.279,0.403,12.39,0.864c2.93,0.327,5.814,1.072,8.705,1.698
				c0.45,0.097,0.823,0.551,1.313,0.897c-1.112,1.136-2.203,0.656-3.127,0.56c-8.868-0.931-17.75-0.732-26.629-0.353
				c-1.445,0.061-2.901,0.455-4.293,0.885c-0.504,0.156-1.465,0.514-0.843,1.677c1.429-0.141,2.893-0.289,4.358-0.43
				c6.509-0.627,13.012-0.818,19.491,0.301c1.892,0.327,3.774,0.708,5.126,2.163c-0.028,1.201-0.809,2.514,0.957,3.056
				c0.179,0.055,0.178,0.695,0.313,1.297c-1.354,0.089-2.512,0.193-3.674,0.236c-3.849,0.141-7.697,0.221-11.544,0.395
				c-9.233,0.418-18.282,1.833-26.955,5.161c-0.379,0.146-1.222,0.113-0.912,1.212c3.377-0.09,6.751-0.262,10.124-0.251
				c3.405,0.011,6.815,0.102,10.21,0.344c3.541,0.255,7.086,0.611,10.596,1.14c5.338,0.803,7.785,1.681,9.624,3.304
				c-1.795-0.056-3.227-0.022-4.644-0.153c-12.425-1.151-24.852-0.914-37.286-0.189c-4.014,0.231-7.965,0.769-11.802,1.988
				c-0.394,0.127-1.214,0.058-0.984,1.224c1.456-0.153,2.888-0.284,4.314-0.458c8.553-1.037,17.108-1.583,25.696-0.354
				c3.389,0.486,6.732,1.11,9.811,2.697c0.447,0.229,0.818,0.606,1.196,0.892c-0.241,0.401-0.308,0.622-0.388,0.626
				c-0.574,0.037-1.175,0.143-1.722,0.019c-6.69-1.517-13.476-1.906-20.307-1.79c-1.776,0.029-3.551,0.121-5.325,0.182
				c-0.657,0.021-1.123,0.253-1.156,0.992c-1.316-1.029-1.574-1.027-2.122,0.023c-0.754-0.868-1.749-0.917-2.819-0.9
				c-2.948,0.046-5.896,0.019-8.845,0.03c-1.031,0.004-1.57-0.573-1.923-1.751c-1.385,0.332-2.855,0.499-4.173,1.038
				c-2.726,1.115-5.383,2.403-8.037,3.685c-0.483,0.234-0.819,0.773-1.223,1.173c-0.615,0.299-1.277,0.532-1.83,0.919
				c-0.43,0.301-0.966,0.688-0.599,1.587c1.415-0.354,2.165-1.214,2.371-2.613c0.39,0.088,0.78,0.177,1.399,0.317
				c-0.121,0.753-0.267,1.66-0.448,2.787c-2.088,0.704-3.615,2.165-4.298,4.797c3.064-0.275,5.669-0.906,7.182-3.685
				c1.306-2.4,3.024-4.348,5.485-5.343c3.759-0.179,7.424-0.349,11.09-0.536c0.284-0.014,0.668-0.056,0.824-0.237
				c1.599-1.882,3.784-1.297,5.799-1.426c0.69-0.021,1.383-0.042,2.081-0.046c2.658,0.294,5.325,0.466,7.957,0.866
				c3.801,0.579,7.604,1.214,11.354,2.051c1.546,0.345,3.004,1.203,4.414,1.984c0.531,0.294,1.202,0.947,0.313,1.896
				c-0.486-0.126-1.047-0.223-1.573-0.415c-4.364-1.594-8.945-2.037-13.509-2.554c-0.704-0.08-1.666-0.133-2.118,0.256
				c-1.116,0.961-2.227,0.487-3.374,0.395c-7.712-0.627-15.392-0.278-23.054,0.729c-2.117,0.278-3.577,1.142-3.989,3.732
				c1.475-0.275,2.757-0.486,4.026-0.758c5.663-1.213,11.365-2.233,17.165-2.276c3.091-0.023,6.191,0.411,9.276,0.729
				c0.569,0.058,1.481,0.095,1.411,1.222c-0.447,0.113-0.856,0.304-1.269,0.308c-10.438,0.089-20.617,2.162-30.822,4.027
				c-0.872,0.16-1.796,0.267-2.576,0.646c-1.055,0.514-1.699,1.406-1.533,3c1.269-0.338,2.238-0.652,3.229-0.851
				c3.776-0.758,7.537-1.644,11.348-2.169c4.71-0.647,9.46-0.714,14.154,0.305c0.66,0.144,1.525,0.304,1.265,1.477
				c-0.4,0.063-0.812,0.194-1.219,0.184c-5.951-0.162-11.86,0.446-17.717,1.316c-4.236,0.632-8.392,1.816-12.571,2.805
				c-0.763,0.181-1.287,0.703-0.868,1.835c1.838-0.413,3.689-0.854,5.551-1.243c7.433-1.555,14.916-2.532,22.512-1.497
				c1.589,0.218,3.148,0.767,4.661,1.32c0.38,0.14,0.682,0.875,0.734,1.366c0.028,0.258-0.543,0.814-0.873,0.839
				c-1.753,0.132-3.514,0.139-5.272,0.189l-0.018,0.104c-0.46-1.444-0.7-1.548-1.804-0.783l0.022,0.006
				c-0.686-0.202-1.381-0.606-2.054-0.574c-2.661,0.132-5.323,0.324-7.969,0.634c-4.856,0.566-9.696,1.263-14.552,1.832
				c-0.948,0.111-1.937-0.107-2.772-0.165c-0.285-1.114-0.486-1.901-0.742-2.896c-3.387,0.954-6.595,1.445-9.16,3.938
				c-0.469-0.671-0.769-1.101-1.075-1.536c1.43-1.307,3.23-2.061,3.219-4.18c-4.129,0.43-5.269,1.348-7.534,6.043
				c0.378,0.288,0.755,0.573,1.576,1.2c-3.405,0.41-5.086,2.423-6.659,4.626c-0.719,1.007-1.64,1.869-2.469,2.798
				c-0.146-0.103-0.292-0.204-0.439-0.306c0.621-1.247,1.241-2.494,1.862-3.741c-3.302,1.215-4.834,3.825-6.331,7.19
				c1.393-0.329,2.374-0.466,3.288-0.792c4.604-1.642,9.178-3.373,13.791-4.991c3.468-1.215,6.899-2.646,10.75-1.973
				c0.824,0.145,1.744-0.267,2.62-0.416c2.192-0.373,4.377-0.78,6.575-1.106c6.611-0.979,13.256-1.355,19.93-0.902
				c0.74,0.049,1.856-0.382,2.167,1.068c-1.432,0.839-3.076,0.563-4.624,0.737c-1.618,0.183-3.246,0.279-4.868,0.431
				c-1.77,0.164-3.54,0.325-5.304,0.527c-1.62,0.187-3.235,0.408-4.847,0.651c-1.611,0.243-3.219,0.514-4.822,0.806
				c-1.604,0.293-3.202,0.614-4.797,0.948c-1.595,0.333-3.188,0.682-4.774,1.056c-1.73,0.408-3.456,0.844-5.178,1.288
				c-1.578,0.406-3.163,0.801-4.72,1.279c-1.437,0.439-2.992,0.635-4.185,1.744c4.689-0.452,9.289-1.257,13.915-1.865
				c4.548-0.6,9.114-1.15,13.69-1.447c4.664-0.305,9.359-0.411,14.325,0.645c-0.606,0.368-0.823,0.605-1.057,0.625
				c-1.177,0.1-2.358,0.17-3.539,0.198c-14.295,0.34-28.288,2.769-42.14,6.123c-1.055,0.256-2.409,0.119-2.99,1.445
				c-0.353-0.073-0.705-0.146-1.057-0.218c0.014,0.136,0.028,0.272,0.043,0.409c0.328-0.106,0.656-0.211,0.983-0.316
				c0.864,0.054,1.736,0.211,2.59,0.143c4.133-0.334,8.255-0.806,12.392-1.08c4.435-0.296,8.881-0.357,13.296,0.342
				c0.721,0.114,1.459,0.283,2.109,0.596c0.298,0.143,0.48,0.679,0.559,1.067c0.042,0.207-0.187,0.617-0.393,0.704
				c-0.947,0.403-1.914,0.775-2.901,1.066c-6.428,1.892-13.032,2.765-19.683,3.375c-4.424,0.406-8.848,0.827-13.264,1.31
				c-0.79,0.086-1.838-0.118-2.2,1.012c-0.215-0.126-0.419-0.276-0.648-0.365c-0.1-0.041-0.25,0.044-0.377,0.074
				c0.122,0.183,0.258,0.526,0.36,0.517c0.219-0.022,0.419-0.226,0.628-0.352c1.305,0.208,2.604,0.528,3.915,0.599
				c5.658,0.304,11.16,1.474,16.618,2.891c1.569,0.407,3.162,0.841,4.271,2.205c0.69,0.85,0.445,2.308-0.593,2.6
				c-1.129,0.318-2.314,0.565-3.481,0.598c-7.112,0.193-14.225,0.343-21.317-0.449c-2.062-0.231-4.126-0.452-6.195-0.595
				c-1.977-0.138-3.557,0.66-5.168,2.382c6.134,1.261,11.335,3.806,16.518,6.354c1.568,0.771,2.937,1.969,4.333,3.053
				c0.271,0.212,0.463,0.931,0.31,1.19c-0.26,0.439-0.779,0.847-1.272,1.002c-0.54,0.171-1.187,0.121-1.766,0.029
				c-3.944-0.621-7.88-1.292-11.825-1.918c-0.94-0.149-1.899-0.188-3.385-0.327c1.462,1.999,2.637,3.504,3.694,5.088
				c0.733,1.1,1.41,2.265,1.919,3.48c0.527,1.26-0.229,2.292-1.739,2.396c-0.645,0.046-1.318-0.306-2.092-0.506
				c0.514-0.699,0.835-1.138,1.226-1.668c-3.812-4.394-7.85-8.512-12.141-12.381c-0.264-0.238-0.776-0.199-1.409-0.342
				c-0.067,1.438,0.791,2.331,1.324,3.31c1.933,3.545,3.401,7.25,3.968,11.267c0.145,1.021,0.216,2.067,0.178,3.098
				c-0.04,1.052-1.512,1.736-2.37,1.093c-0.696-0.522-1.283-1.2-1.876-1.848c-0.847-0.923-1.655-1.881-2.561-2.916
				c-0.292,0.568-0.406,0.826-0.55,1.065c-0.36,0.594-0.604,1.398-1.135,1.716c-0.719,0.43-2.25-0.289-2.614-1.193
				c-0.377-0.937-0.687-1.983-0.671-2.977c0.024-1.621,0.31-3.239,0.534-4.853c0.419-3.019,0.434-3.016-1.738-6.74
				c-0.482,0.644-0.99,1.173-1.332,1.796c-5.206,9.479-10.598,18.864-15.517,28.492c-4.512,8.833-8.573,17.899-12.693,26.926
				c-1.383,3.033-3.167,5.636-5.66,7.849c-1.876,1.666-3.541,3.573-5.273,5.398c-1.608,1.694-2.231,3.653-2.137,6.059
				c0.08,2.03-0.248,4.161-0.837,6.113c-0.66,2.189-2.136,3.923-4.598,4.354c-2.1,0.369-3.633-0.983-3.327-3.019
				c0.398-2.647,1.122-5.194,2.948-7.305c0.768-0.888,1.498-1.856,2.013-2.901c3.14-6.374,6.026-12.88,9.359-19.149
				c3.964-7.457,7.855-14.938,11.566-22.528c4.813-9.844,10.211-19.399,15.31-29.104c0.334-0.636,1.351-1.308,0.348-2.314
				c-2.208,0.772-4.406,1.631-6.661,2.289c-1.104,0.322-2.33,0.432-3.481,0.35c-1.061-0.075-1.962-0.726-2.266-1.86
				c-0.3-1.125,0.154-2.058,1.007-2.752c0.567-0.461,1.243-0.796,1.892-1.149c1.026-0.562,2.069-1.09,3.11-1.636
				c-0.223-0.395-0.303-0.692-0.497-0.854c-3.04-2.524-3-4.02,0.2-5.92c1.548-0.92,3.195-1.586,5.028-1.609
				c1.14-0.015,2.281,0.049,3.774,0.086c-0.331-1.156-0.665-2.099-0.859-3.069c-0.199-1.003-0.526-2.093-0.308-3.031
				c0.207-0.895,1.045-1.64,1.578-2.41c-0.781-1.783-1.491-3.401-2.197-5.013c0.449-0.645,0.84-1.204,1.148-1.644
				c-1.223-1.809-2.588-3.408-3.476-5.238c-1.392-2.869,0.089-5.334,3.271-5.838c1.503-0.24,2.941,0.001,4.285,0.77
				c0.48,0.274,1.014,0.457,1.951,0.869c-0.258-1.659-0.505-2.922-0.643-4.194c-0.335-3.087-0.681-6.175-0.89-9.271
				c-0.068-1.003,0.125-2.094,0.487-3.033c0.225-0.582,0.941-1.241,1.527-1.343c0.571-0.098,1.549,0.294,1.84,0.777
				c1.064,1.767,1.937,3.65,2.84,5.512c0.659,1.353,0.938,2.907,2.44,4.908c-0.034-1.919-0.03-2.912-0.072-3.903
				c-0.273-6.394,0.055-12.748,1.446-19.006c0.382-1.718,1.07-3.379,1.748-5.014c0.187-0.449,0.814-0.945,1.287-0.999
				c0.925-0.103,1.12,0.769,1.305,1.474c0.112,0.422,0.298,0.983,0.117,1.283c-0.215,0.355-0.786,0.497-1.397,0.843
				c-2.339,9.46-2.418,23.989,0,31.479c0.432-0.537,0.814-0.912,1.08-1.357c2.655-4.454,5.24-8.949,7.968-13.356
				c0.676-1.093,0.837-2.191,0.904-3.363c0.687-11.865,0.102-23.702-0.86-35.527c-0.047-0.573,0.042-1.321-0.957-1.713
				c-0.212,1.634-0.408,3.086-0.589,4.541c-1.283,10.308-1.579,20.676-1.875,31.045c-0.059,2.068-0.229,4.138-0.439,6.197
				c-0.049,0.482-0.216,1.197-1.207,1.003c-0.147-0.299-0.45-0.658-0.49-1.045c-0.383-3.682-0.733-7.368-1.061-11.057
				c-0.051-0.566-0.172-1.346,0.126-1.688c1.25-1.432,0.768-3.115,0.835-4.689c0.319-7.407,0.789-14.802,2.08-22.111
				c0.643-3.642,1.517-7.244,2.341-10.851c0.105-0.459,0.2-1.248,1.365-0.9c0.291,2.208,0.596,4.52,0.903,6.832
				c0.333,2.498,0.679,4.995,0.998,7.494c0.301,2.354,0.598,4.707,0.855,7.064c0.256,2.358,0.511,4.718,0.674,7.083
				c0.173,2.513,0.197,5.033,0.358,7.547c0.148,2.302-0.317,4.644,0.211,7.297c1.595-1.307,1.821-2.792,1.927-4.198
				c0.256-3.393,0.443-6.796,0.475-10.197c0.034-3.703-0.255-7.408-0.199-11.11c0.147-9.658,0.809-19.274,3.964-28.5
				c1.243-3.634,2.868-7.144,4.424-10.665c0.516-1.165,1.257-2.304,2.717-2.614c0.896,2.709,0.676,4.788-0.71,7.447
				c-1.39,1.954-2.203,4.123-2.787,6.455c-1.62,6.472-2.891,13.006-3.584,19.636c-0.936,8.975-1.735,17.963-2.574,26.948
				c-0.054,0.574,0.065,1.165,0.115,1.939c1.659-0.62,2.344-1.682,2.52-3.256c0.325-2.94,0.729-5.871,1.14-8.8
				c0.092-0.665,0.341-1.308,1.1-1.894c-0.015,2.755-0.029,5.511-0.047,8.723c0.816-0.521,1.472-0.704,1.655-1.103
				c0.61-1.326,1.182-2.698,1.526-4.113c0.517-2.129,0.829-4.308,1.358-7.168c1.251,2.72-0.292,4.888,0.733,7.422
				c0.446-1.334,0.884-2.197,1.016-3.104c1.43-9.816,2.552-19.657,2.632-29.597c0.026-3.25,0.299-6.498,0.427-9.747
				c0.021-0.561-0.123-1.126-0.31-2.678c-0.929,2.774-1.597,4.624-2.166,6.505c-0.557,1.84-1.056,3.702-1.501,5.573
				c-0.479,2.015-0.818,4.063-1.308,6.075c-0.429,1.76-0.151,3.802-1.637,5.132c-1.065-0.193-1.052-0.921-1.032-1.422
				c0.083-2.066,0.116-4.157,0.462-6.188c0.698-4.083,1.511-8.139,1.676-12.296c0.042-1.022,0.379-2.032,0.582-3.05
				c0.976,0.242,1.692-0.002,2.183-0.961c0.807-1.572,1.649-3.129,2.574-4.633c0.236-0.384,0.843-0.541,1.704-1.056
				c0.705,5.491-0.392,10.452-0.264,15.417c0.125,4.875,0.034,9.768-0.258,14.636c-0.299,4.985-0.957,9.947-1.503,15.371
				c0.475-0.715,0.779-1.014,0.892-1.372c0.665-2.116,1.286-4.245,1.922-6.371c-1.06-2.647,1.675-4.222,1.843-6.522
				c0.033-0.443,0.052-0.888,0.113-1.327c1.046-7.469,2.015-14.951,3.172-22.404c1.206-7.774,3.238-15.35,6.28-22.616
				c1.83-4.373,4.005-8.584,6.778-12.456c0.437-0.611,0.909-1.188,2.061-0.623c-0.873,1.984-1.723,3.995-2.639,5.975
				c-2.18,4.714-4.05,9.542-5.314,14.583c-0.603,2.403-1.523,4.753-1.431,7.296l-0.029-0.169c-1.623,4.925-2.902,9.919-3.311,15.443
				c0.735-0.471,1.287-0.689,1.654-1.081c3.139-3.345,6.249-6.717,9.358-10.09c0.786-0.853,1.448-1.844,2.325-2.584
				c3.276-2.771,6.573-5.521,9.958-8.156c1.249-0.972,1.928-2.118,2.382-3.583c1.053-3.394,2.109-6.797,3.381-10.113
				c3.776-9.838,8.348-19.319,13.565-28.464c2.711-4.75,5.863-9.25,8.855-13.838c0.535-0.821,1.061-1.823,2.673-1.567
				c-0.771,1.376-1.47,2.656-2.197,3.917c-1.927,3.334-4.063,6.563-5.764,10.009c-4.393,8.896-8.767,17.81-12.819,26.864
				c-3.387,7.565-6.004,15.435-7.931,23.525c-0.44,1.85-0.013,3.127,1.332,4.386c1.975-1.627,3.916-3.223,5.854-4.822
				c0.495-0.409,0.989-0.599,1.503-0.032c0,0-0.055-0.132-0.048-0.119c-4.211,4.36-8.428,8.704-12.639,13.055
				c-0.091,0.094-0.13,0.262-0.143,0.4c-0.012,0.144,0.037,0.292,0.089,0.64c2.868-2.219,5.228-4.837,7.827-7.19
				c2.614-2.368,4.847-5.216,8.186-6.768c-2.079,2.875-4.393,5.52-6.668,8.199c-2.255,2.657-4.993,4.922-7.156,8.401
				c0.957-0.328,1.431-0.352,1.689-0.6c5.233-5.013,10.56-9.914,16.343-14.306c0.505-0.383,0.846-1.177,0.971-1.837
				c0.521-2.742,1.331-5.207,3.568-7.195c1.494-1.328,2.464-3.243,4.04-5.404c-3.217,0.807-4.992,2.961-7.863,4.141
				c0.713-1.937,2.085-2.569,3.158-3.442c1.248-1.016,2.56-1.954,3.59-2.733c0.164-1.322,0.184-2.313,0.432-3.245
				c0.263-0.991,0.858-1.896,1.105-2.889c1.479-5.939,4.127-11.407,6.927-16.781c1.975-3.792,4.362-7.369,6.536-11.057
				c0.418-0.709,0.963-1.077,1.771-1.084l0.023-0.012c-1.01,1.622-2.06,3.22-3.021,4.869c-3.215,5.515-5.369,11.502-8.194,17.818
				c0.698-0.584,1.011-0.717,1.102-0.94c2.242-5.54,5.652-10.407,8.893-15.362c6.268-9.586,13.394-18.464,22.012-26.076
				c0.996-0.881,2.015-1.748,3.1-2.513c0.372-0.262,0.977-0.191,2.47-0.436c-4.767,6.972-10.822,11.805-14.973,18.58
				c4.932-2.05,4.932-2.05,7.436-5.002c0.188,0.209,0.377,0.419,0.565,0.628c16.385-17.224,17.013-17.806,22.06-20.109
				c-2.531,3.377-5.571,5.541-7.895,8.355c-2.313,2.805-5.327,5.028-7.253,8.373c2.254,0.17,3.544-0.983,4.858-2.258
				c5.873-5.697,12.309-10.699,19.317-14.91c3.291-1.978,6.812-3.581,10.277-5.252c0.903-0.436,1.98-0.588,2.995-0.669
				c0.417-0.033,0.878,0.469,1.503,0.836c-9.949,3.917-33.039,22.401-36.421,28.057c0.966,0.096,1.905,0.19,3.535,0.353
				c-1.063,0.655-1.493,1.012-1.988,1.211c-2.475,0.996-4.993,1.888-7.445,2.934c-6.138,2.615-12.24,5.31-18.373,7.936
				c-1.706,0.729-2.899,1.807-3.364,3.981c2.46-0.683,4.144-2.205,6.078-3.228c1.967-1.038,3.87-2.199,5.859-3.189
				s4.024-1.896,6.086-2.726c2.06-0.831,4.15-1.61,6.277-2.248c2.048-0.614,4.103-1.38,7.37-1.235
				c-1.672,0.857-2.396,1.269-3.152,1.612c-7.285,3.314-14.6,6.563-21.852,9.951c-3.085,1.442-6.069,3.115-9.037,4.792
				c-1.974,1.114-2.074,1.417-2.8,4.256c2.217-1.403,4.176-2.707,6.196-3.905c2.167-1.285,4.358-2.541,6.603-3.682
				c2.111-1.074,4.272-2.076,6.479-2.936c2.346-0.916,4.747-1.705,7.168-2.401c2.2-0.634,4.388-1.483,6.815-1.166
				c-0.887,0.772-1.85,1.314-2.869,1.711c-2.762,1.077-5.558,2.069-8.322,3.142c-1.711,0.663-3.168,1.615-3.42,3.665
				c0.274,0.049,0.578,0.2,0.812,0.128c4.361-1.361,8.885-2.22,12.717-5.046c2.005-1.48,4.408-2.425,6.649-3.578
				c0.452-0.232,0.982-0.308,1.752-0.537c-0.349,1.712-1.605,2.063-2.508,2.708c-4.218,3.016-8.477,5.974-12.683,9.005
				c-0.642,0.463-1.572,0.872-1.346,2.301c0.828-0.235,1.694-0.307,2.367-0.704c2.042-1.204,3.989-2.568,6.01-3.809
				c6.589-4.043,13.435-7.568,20.802-9.982c1.331-0.436,2.662-1.136,4.3-0.907c-0.239,0.442-0.304,0.766-0.49,0.866
				c-1.302,0.706-2.613,1.399-3.952,2.034c-10.082,4.778-19.568,10.553-28.601,17.082c-0.95,0.687-1.788,1.53-2.677,2.301
				l0.182-0.083c-0.574,0.468-1.147,0.935-1.72,1.403l0.162-0.051c-0.889,0.441-1.872,0.757-2.65,1.345
				c-3.056,2.303-6.084,4.646-9.044,7.069c-1.236,1.012-2.276,2.263-3.407,3.406l0.159-0.012c-1.392,0.09-1.053,0.964-0.813,1.794
				l-0.081-0.118c-1.086,1.417-2.186,2.812-4.184,2.926L167.373,78.727z M171.546,125.367c0.164,0.088,0.329,0.178,0.493,0.268
				c-0.12,0.027-0.243,0.053-0.365,0.081c-0.368-0.185-0.745-0.354-1.101-0.559c-0.541-0.312-1.003-0.317-1.356,0.27
				c-0.815-0.257-1.626-0.725-2.448-0.752c-3.396-0.11-6.797-0.086-10.179-0.112c-0.336,0.764-0.438,1.695-0.898,1.934
				c-4.419,2.298-4.436,2.264-7.695,6.192c1.771-0.482,3.122-0.85,4.486-1.221c0.141-0.843,0.252-1.524,0.377-2.278
				c3.544-1.623,7.345-2.239,11.122-2.946c1.73-0.324,3.464-0.644,5.196-0.964c0.823,0.146,1.647,0.294,2.471,0.441
				C171.619,125.603,171.582,125.484,171.546,125.367z M139.144,99.541c0.054-0.007,0.087-0.177,0.13-0.272
				c-0.276,0.144-0.552,0.29-0.829,0.434c-0.505,0.564-1.011,1.126-1.516,1.69c-3.643,2.343-6.535,5.549-9.398,8.682
				c-8.288,9.069-16.589,18.145-24.414,27.609c-8.201,9.918-15.858,20.288-23.75,30.462c-0.454,0.585-0.828,1.24-1.33,1.777
				c-7.032,7.524-12.011,16.479-17.481,25.088c-2.62,4.123-5.142,8.313-7.616,12.525c-3.6,6.127-7.263,12.225-10.635,18.478
				c-5.2,9.644-10.189,19.398-15.233,29.126c-0.733,1.414-1.47,2.792-1.62,4.517c-0.118,1.361-1.07,2.649-1.299,4.129
				c2.754-5.098,5.509-10.194,8.262-15.292c0.212-0.391,0.379-0.81,0.623-1.179c6.52-9.91,11.423-20.731,17.433-30.927
				c9.55-16.202,19.361-32.229,30.548-47.396c10.904-14.782,22.006-29.388,34.363-42.998c3.682-4.056,7.458-8.024,11.13-12.087
				c3.075-3.402,6.085-6.864,9.066-10.346c0.563-0.656,0.859-1.538,1.277-2.315c1.199,0.081,1.244-0.918,1.561-1.662
				C138.656,99.556,138.903,99.572,139.144,99.541z M121.873,103.871c-0.771,0.789-1.151,1.177-1.53,1.565
				c-0.193,0.172-0.387,0.344-0.581,0.517c0.174-0.208,0.348-0.417,0.521-0.623C121.217,105.868,121.479,105.241,121.873,103.871z
				 M117.519,104.486c0.104-0.052,0.168-0.178,0.25-0.272c-0.139,0.039-0.313,0.039-0.41,0.125
				c-0.186,0.166-0.329,0.381-0.489,0.575c-0.252,0.128-0.504,0.255-0.757,0.384c0.236-0.173,0.472-0.347,0.707-0.52
				C117.054,104.674,117.296,104.6,117.519,104.486z M89.591,150.007c0.535-0.35,1.069-0.699,1.604-1.047
				c0.268-0.607,0.534-1.214,0.929-2.112c-1.045,0.581-0.508,1.591-0.953,2.116C90.078,148.89,90.078,148.89,89.591,150.007z
				 M187.234,56.84c-0.752,0.272-1.504,0.544-2.256,0.817c-0.045,0.189-0.09,0.379-0.136,0.568c-0.01-0.107-0.062-0.232-0.021-0.315
				c0.047-0.099,0.172-0.16,0.262-0.238C186.117,58.809,186.644,57.665,187.234,56.84z M107.857,119.565
				c-1.501,1.647-3.343,3.108-3.482,5.605c-0.468,0.202-1.133,0.24-1.392,0.583c-2.16,2.862-4.244,5.782-6.351,8.685
				c-0.053,0.235-0.106,0.469-0.121,0.537c0.02-0.072,0.088-0.309,0.154-0.547c0.583,0.461,1.065,0.295,1.447-0.26
				c2.081-3.027,4.151-6.06,6.225-9.092c1.547-1.827,3.096-3.655,4.644-5.484c0.443-0.729,0.886-1.457,1.441-2.37
				c-1.223,0.75-1.223,0.75-1.412,2.414C108.632,119.634,108.016,119.392,107.857,119.565z M154.258,78.304
				c-1.507,1.919-2.973,3.872-4.208,6c2.274-1.545,3.861-3.633,4.938-6.137c0.224-0.094,0.448-0.188,0.672-0.283
				c-0.137-0.107-0.275-0.214-0.412-0.322c-0.067,0.238-0.133,0.476-0.198,0.714C154.781,78.285,154.362,78.171,154.258,78.304z
				 M121.914,95.278c2.714-0.75,3.917-2.654,4.143-5.35c-0.707-0.748-1.196-0.191-1.807,0.21c-1.412,0.925-2.064,2.804-3.95,3.114
				c-0.723,0.885-1.432,1.782-2.171,2.653c-0.982,1.157-0.993,1.147-1.589,3.896c2.861-1.072,3.69-1.963,3.896-4.377
				c0.061-0.715-0.093-1.449-0.148-2.175C120.803,93.896,121.322,94.541,121.914,95.278z M96.596,141.083
				c3.322-4.145,6.627-8.304,9.898-12.489c0.292-0.375,0.334-0.943,0.642-1.875c-3.174,2.8-9.015,10.476-11.293,14.661
				c-1.082,0.355-1.576,1.08-1.396,2.938c0.619-1.405,0.981-2.228,1.344-3.05C96.062,141.205,96.462,141.249,96.596,141.083z
				 M49.474,185.141c1.795,1.118,3.414,2.352,4.444,4.214c0.165,0.297-0.041,0.799-0.1,1.486c-1.849-0.747-3.521-1.424-5.243-2.119
				c-0.082,0.577-0.224,0.885-0.142,1.114c0.402,1.11,0.782,2.242,1.325,3.286c0.931,1.792,1.976,3.522,3.214,5.703
				c0.753-1.357,1.338-2.322,1.838-3.328c1.576-3.174,3.084-6.381,4.69-9.539c0.982-1.93,1.241-3.822,0.698-5.979
				c-1.448-5.744-3.104-11.415-5.312-16.918c-0.268-0.666-0.608-1.303-1.206-2.571c-0.408,1.178-0.775,1.755-0.784,2.336
				c-0.071,4.769,0.723,9.411,2.043,13.99c0.38,1.313,1.308,2.671,0.558,4.092c-1.311,0.329-1.764-0.537-2.304-1.197
				c-1.131-1.382-2.313-2.666-3.995-3.43c-1.635-0.741-3.129-0.787-4.806,0.733C44.998,180.574,46.563,183.326,49.474,185.141z
				 M66.289,201.91c0.645-1.155,0.526-2.194-0.678-3.287c3.047-1.426,4.142-4.024,5.408-6.532c1.592-3.152,3.313-6.239,4.911-9.225
				c-0.754-1.201-1.481-0.665-2.007-0.315c-0.598,0.396-1.13,0.969-1.526,1.573c-3.972,6.061-7.912,12.14-11.855,18.219
				c-0.655,1.009-1.064,2.047-0.905,3.335c0.125,1.007-0.053,2.062-0.176,3.086c-0.167,1.383,0.6,1.817,2.027,1.931
				C63.054,207.82,64.648,204.851,66.289,201.91z M127.233,136.184c-1.263,1.507-2.45,3.197-4.349,4.502
				c-0.57-2.148,1.704-2.994,1.354-4.958c-0.779,0.318-1.712,0.42-2.191,0.94c-3.479,3.785-6.869,7.654-10.273,11.508
				c-0.061,0.068,0.044,0.28,0.095,0.546c2.242-0.472,4.241-1.472,5.545-3.306c0.841-1.182,1.879-1.84,3.092-2.348
				c2.583-1.082,5.181-2.133,7.803-3.116c1.421-0.534,2.571-1.29,3.531-2.515c1.523-1.943,3.236-3.739,4.869-5.597
				C132.763,131.973,129.65,133.298,127.233,136.184z M98.928,201.332c-6.962-1.266-13.924-2.513-21.042-2.527
				c-1.718-0.003-3.394,0.161-5.159-0.678c-1.203-0.572-3.138-0.291-4.191,1.399c6.16,2.709,24.061,4.291,32.58,2.752
				C99.987,201.78,99.48,201.433,98.928,201.332z M75.779,193.939c6.633-1.803,13.463-1.997,20.254-2.551
				c4.428-0.362,8.842-0.897,13.257-1.413c0.973-0.113,1.916-0.474,2.967-0.746c-0.947-1.182-2.089-0.679-3.025-0.63
				c-5.178,0.266-10.352,0.643-15.524,1.018c-4.581,0.335-9.16,0.693-13.734,1.102c-1.173,0.104-2.346,0.365-3.483,0.683
				c-1.14,0.318-1.447,1.301-1.751,2.317C75.234,193.832,75.539,194.004,75.779,193.939z M42.046,205.516
				c1.49,0.59,1.861,2.116,0.739,3.171c-0.813,0.765-1.758,1.388-3.207,2.509c3.942-0.021,5.853-3.322,9.096-3.106
				c0.889-2.019,1.715-3.896,2.649-6.016c-1.748-1.562-1.067-4.572-3.244-6.47c-0.679,1.272,0.121,2.118,0.399,3.004
				c0.31,0.986,0.811,1.918,1.071,2.914c0.244,0.932,0.282,1.918,0.47,3.322c-1.104-0.485-1.959-0.595-2.345-1.078
				c-2.012-2.52-4.351-2.072-6.781-0.901c-0.621,0.298-1.128,0.831-2.125,1.588C40.192,204.909,41.141,205.158,42.046,205.516z
				 M71.438,212.782c7.195,2.709,10.191,3.364,14.904,3.047c0.056-0.127,0.184-0.279,0.155-0.391
				c-0.028-0.114-0.2-0.215-0.331-0.275c-1.74-0.795-3.443-1.7-5.238-2.347c-3.881-1.395-7.801-2.68-11.722-3.957
				c-1.11-0.362-2.278-0.544-4.256-1.001C67.107,210.43,69.033,211.875,71.438,212.782z M163.51,61.63
				c4.413-2.679,8.847-5.327,13.204-8.095c1.831-1.164,3.493-2.595,5.771-4.311c-1.063-0.067-1.501-0.235-1.769-0.091
				c-5.188,2.809-10.363,5.641-15.524,8.499c-1.996,1.105-3.368,2.761-4.396,5.432C162.014,62.425,162.787,62.069,163.51,61.63z
				 M98.915,153.628c1.4-3.177,2.75-6.242,4.25-9.65c-0.59,0.408-1.042,0.603-1.329,0.938c-5.355,6.245-10.157,12.91-14.835,19.834
				C91.67,161.777,93.817,156.051,98.915,153.628z M148.441,128.116c-3.783,0.16-6.757,1.065-9.063,3.709
				c-1.428,1.638-3.306,2.884-4.715,5.332C141.141,136.433,145.123,133.118,148.441,128.116z M112.394,109.874
				c0.05-0.07-0.038-0.241-0.106-0.603c-0.659,0.48-1.295,0.836-1.796,1.33c-2.53,2.495-4.95,5.108-7.552,7.523
				c-2.491,2.312-2.744,5.348-2.843,8.513C104.199,121.051,108.301,115.466,112.394,109.874z M112.982,101.022
				c-2.96,3.071-5.94,6.125-8.857,9.236c-1.146,1.223-1.628,2.716-1.237,4.917c0.656-0.571,1.053-0.854,1.375-1.206
				c2.69-2.921,5.353-5.87,8.057-8.778c1.183-1.273,2.292-2.537,1.906-5.316C113.616,100.436,113.281,100.712,112.982,101.022z
				 M114.184,94.488c-2.947,3.081-5.863,6.191-8.821,9.262c-0.996,1.033-1.521,2.13-0.991,3.57
				c2.396-1.8,10.569-10.63,11.371-12.378c0.149-0.326-0.038-0.806-0.101-1.636C114.982,93.834,114.538,94.118,114.184,94.488z
				 M126.783,85.776c0.703-0.646,0.659-2.103,1.177-3.984c-3.932,2.626-6.523,5.5-9.246,8.202c-0.559,0.554-0.713,1.514-1.053,2.287
				c0.249,0.138,0.497,0.276,0.745,0.414C121.219,90.412,124.122,88.225,126.783,85.776z M107.994,164.637
				c0.428,0.043,0.851,0.214,1.161,0.096c1.903-0.733,3.804-1.48,5.65-2.341c0.471-0.219,0.789-0.837,1.091-1.326
				c0.282-0.458,0.452-0.987,0.713-1.58C111.408,159.235,110.278,159.921,107.994,164.637z M158.519,66.61
				c-0.683,0.44-1.131,1.247-1.719,1.921c0.408,0.225,0.725,0.5,0.822,0.438c4.2-2.709,8.388-5.438,12.546-8.208
				c0.289-0.191,0.348-0.729,0.72-1.575C166.133,61.25,162.421,64.097,158.519,66.61z M63.647,182.33
				c3.904-5.043,9.152-14.084,9.956-17.158C69.905,169.346,64.661,178.384,63.647,182.33z M152.453,124.673
				c1.735-1.203,3.246-2.73,5.184-4.4c-2.53-0.624-4.414-0.476-6.086,0.975c-1.379,1.198-2.752,2.404-4.574,3.996
				C149.251,125.523,151.007,125.675,152.453,124.673z M187.514,51.786c-2.221-0.071-3.938,0.479-7.025,2.227
				c-1.245,0.705-2.431,1.454-2.9,3.261C181.623,56.371,184.887,54.677,187.514,51.786z M60.092,216.583
				c-1.163,1.681-1.7,3.164-0.728,4.693c1.089,1.718,2.384,3.309,3.658,4.898c0.203,0.254,0.77,0.216,1.411,0.372
				C63.536,222.942,61.976,219.877,60.092,216.583z M158.771,79.134c3.126-1.656,4.722-4.556,6.972-6.756
				c0.554-0.542,0.847-1.352,1.465-2.384C163.735,71.644,160.287,75.432,158.771,79.134z M185.493,35.038
				c-2.338-0.043-3.423,0.389-7.055,2.574c-0.779,0.469-1.516,0.938-1.323,2.246C180.019,38.592,182.874,37.419,185.493,35.038z
				 M76.899,167.615c4.06-4.631,4.06-4.631,4.358-7.322C78.709,162.208,78.102,163.229,76.899,167.615z M169.747,65.706
				c1.904-0.33,3.28-1.3,4.644-2.259c0.686-0.484,1.482-0.964,1.313-2.33C173.549,62.419,170.943,62.795,169.747,65.706z
				 M190.435,33.073c2.628-0.388,4.774-0.74,5.067-3.883C193.253,29.638,191.337,30.307,190.435,33.073z M130.854,129.083
				c-0.311-0.862-0.913-0.51-1.453-0.333c-1.65,0.542-2.58,1.734-3.311,3.468C129.134,131.243,129.134,131.243,130.854,129.083z
				 M135.993,127.888c2.704,0.23,3.615-0.062,5.848-1.876C138.266,126.092,138.266,126.092,135.993,127.888z M112.151,154.724
				c-0.654-0.766-1.248-0.208-1.754,0.155c-1.268,0.906-2.245,2.071-3.067,3.6C110.028,157.992,110.028,157.992,112.151,154.724z
				 M80.828,179.761c-2.982,2.436-3.929,5.156-4.943,7.837C77.616,185.357,79.681,183.322,80.828,179.761z M86.103,166.374
				c-3.333,3.152-3.333,3.152-4.398,6.04C83.796,170.973,84.929,169.114,86.103,166.374z M97.805,167.049
				c-0.88-1.059-1.557-0.373-1.935,0.034c-0.842,0.91-1.501,1.99-2.813,3.797C96.363,170.345,96.611,168.235,97.805,167.049z
				 M85.578,177.62c-2.196,0.925-2.441,1.26-3.917,5.356C83.912,181.369,83.912,181.369,85.578,177.62z M67.306,202.27
				c-0.493,0.917-0.877,1.633-1.245,2.315c0.429,0.315,0.656,0.623,0.855,0.605c1.313-0.118,2.569-0.402,3.333-1.845
				C69.286,202.995,68.369,202.66,67.306,202.27z M105.025,157.841c-0.672-0.956-1.209-0.508-1.563-0.109
				c-0.85,0.959-2.086,1.68-2.26,3.349C103.411,160.802,103.682,158.728,105.025,157.841z M147.836,121.135
				c-2.645-0.163-2.651-0.193-4.842,1.153C144.694,122.469,146.374,122.669,147.836,121.135z M159.65,70.021
				c-0.293,0.264,0.027,1.213,0.107,2.503c1.32-1.613,2.2-2.688,3.079-3.763c-0.121-0.14-0.243-0.282-0.365-0.422
				C161.514,68.88,160.453,69.306,159.65,70.021z M124.128,106.613c-0.253,0.29-0.301,0.76-0.459,1.197
				c2.033-0.367,2.033-0.367,2.542-3.2C125.341,105.433,124.683,105.978,124.128,106.613z M76.601,179.006
				c2.193-0.494,2.898-1.743,3.232-3.764C77.933,176.064,77.212,177.301,76.601,179.006z M93.379,165.851
				c0.991-0.977,1.544-1.432,1.983-1.979c0.44-0.55,0.765-1.191,1.141-1.791C94.683,162.381,93.79,163.506,93.379,165.851z
				 M88.386,172.112c1.196-0.282,1.196-0.282,2.269-1.967C88.863,170.113,88.666,171.14,88.386,172.112z M113.597,119.217
				c-0.54,0.014-0.888-0.05-0.93,0.035c-0.418,0.849-0.787,1.725-1.169,2.592c0.193,0.121,0.385,0.24,0.577,0.362
				C112.553,121.268,113.03,120.331,113.597,119.217z M92.422,182.559c0.977,1.034,1.719,0.262,2.385-0.542
				C94.046,182.19,93.284,182.364,92.422,182.559z M118.979,113.001c-0.141-0.076-0.282-0.153-0.423-0.23
				c-0.39,0.675-0.78,1.352-1.17,2.027c0.221,0.107,0.441,0.213,0.662,0.319C118.358,114.413,118.668,113.707,118.979,113.001z
				 M80.792,155.024c0.174-0.226,0.407-0.431,0.502-0.687c0.06-0.16-0.087-0.396-0.143-0.599c-0.174,0.227-0.349,0.452-0.523,0.679
				C80.682,154.622,80.737,154.824,80.792,155.024z M83.932,157.439c1.473-0.766,1.787-1.347,1.401-2.535
				C84.913,155.663,84.593,156.241,83.932,157.439z M115.299,111.048c-0.036,0.073,0.107,0.234,0.167,0.355
				c0.532-0.282,0.873-0.641,0.456-1.395C115.686,110.392,115.468,110.709,115.299,111.048z M73.699,190.388
				c0.164,0.12,0.359,0.363,0.487,0.332c0.24-0.06,0.494-0.241,0.631-0.446c0.048-0.072-0.227-0.361-0.443-0.684
				C74.13,189.879,73.914,190.133,73.699,190.388z M60.536,187.739c0.066-0.103,0.105-0.223,0.154-0.336
				c-0.077-0.021-0.208-0.074-0.219-0.056c-0.062,0.104-0.096,0.227-0.139,0.342C60.402,187.708,60.523,187.757,60.536,187.739z
				 M72.727,192.384c-0.484,1.1-0.779,1.771-1.175,2.67C72.843,194.567,73.19,193.918,72.727,192.384z M158.207,63.347
				c0.072-0.085,0.166-0.16,0.203-0.258c0.014-0.032-0.115-0.12-0.18-0.183c-0.07,0.085-0.142,0.168-0.213,0.253
				C158.082,63.222,158.144,63.285,158.207,63.347z M183.738,125.385l0.275,0.031l-0.188-0.198L183.738,125.385z M83.825,174.544
				c0.072-0.079,0.18-0.148,0.204-0.239c0.021-0.087-0.046-0.196-0.074-0.296c-0.072,0.081-0.143,0.163-0.214,0.244
				C83.769,174.35,83.797,174.448,83.825,174.544z"/>
			<path fill="#32191F" d="M153.563,103.913c3.117-1.288,3.244-1.396,4.158-4.655c3.117-1.331,5.544-3.56,7.973-5.9
				c-0.597-0.904-1.126-0.281-1.434-0.072c-1.811,1.232-3.571,2.534-5.34,3.826c-0.737,0.54-1.25,1.218-1.172,2.221
				c-0.419-0.023-1.005-0.268-1.247-0.078c-1.705,1.347-3.381,2.74-4.957,4.231c-0.266,0.251-0.009,1.054-0.013,1.61
				c-3.218,1.325-5.747,3.504-8.009,6.069c-0.75,0.851-1.691,1.532-2.546,2.291c0.585-2.23,1.589-4.128,2.632-6.004
				c0.13-0.234,0.482-0.334,0.702-0.531c1.537-1.368,3.1-2.708,4.589-4.127c2.25-2.145,4.347-4.463,6.69-6.498
				c4.283-3.72,9.031-6.689,14.551-8.21c0.369,0.541,0.681,0.995,1.077,1.573c1.301-0.433,2.533-0.994,3.826-1.228
				c1.284-0.231,2.644-0.024,3.94-0.22c0.752-0.113,1.777-0.191,1.939-1.662c-0.74-0.006-1.42-0.036-2.098-0.011
				c-1.626,0.061-3.25,0.184-4.876,0.212c-0.893,0.015-1.354-0.449-1.035-1.708c12.815-2.34,25.735-4.658,38.978-3.495
				c-0.146-1.141-0.255-1.987-0.376-2.935c-1.637-0.463-3.249-0.111-4.842,0.033c-7.231,0.656-14.459,1.363-21.69,2.018
				c-0.828,0.074-1.79,0.43-2.408-0.547c-0.35-0.552,0.527-1.243,2.192-1.578c9.766-1.965,19.616-3.114,29.592-2.82
				c2.358,0.071,4.712,0.462,7.063,0.749c1.753,0.212,2.871,1.301,3.443,2.865c2.417,0.156,4.643,0.218,6.848,0.464
				c2.12,0.237,4.425-0.397,6.82,1.375c-1.429,0.298-2.395,0.68-3.357,0.67c-5.772-0.055-11.547-0.203-17.321-0.298
				c-0.208-0.003-0.418,0.222-0.658,0.357c0.378,0.735,0.74,1.44,1.129,2.198c-1.407,0.112-2.601,0.206-3.796,0.3
				c3.013,1.223,6.031,1.892,9.071,2.445c3.156,0.574,6.324,1.137,10.116,0.686c-0.555,1.097-0.721,2.024-1.158,2.177
				c-1.374,0.479-2.853,0.921-4.29,0.916c-2.807-0.01-5.628-0.207-8.413-0.562c-2.784-0.354-5.524-1.037-8.3-1.471
				c-0.425-0.066-0.938,0.44-1.409,0.683c-0.559-0.34-1.119-0.679-1.679-1.018c-0.042,0.081-0.087,0.162-0.132,0.244
				c0.596,0.262,1.192,0.525,1.788,0.788c0.986,0.231,2.129,0.221,2.927,0.741c2.052,1.336,4.29,1.846,6.646,2.159
				c0.631,0.083,1.218,0.507,1.925,0.818c-1.158,1.386-2.571,1.115-3.826,1.045c-2.791-0.158-5.568-0.529-8.357-0.739
				c-3.374-0.254-6.754-0.429-10.133-0.639c-0.646-0.04-1.137,0.133-1.204,0.882c-0.438-0.306-0.876-0.61-1.576-1.1
				c0.161,0.54,0.192,0.864,0.273,0.878c0.411,0.066,0.835,0.052,1.26,0.08c3.712,1.053,7.427,2.065,11.122,3.146
				c1.677,0.491,3.43,0.95,4.481,3.205c-1.445-0.205-2.554-0.329-3.647-0.525c-3.785-0.676-7.564-1.386-11.35-2.062
				c-0.722-0.128-1.46-0.19-2.193-0.213c-0.52-0.016-1.043,0.087-2.155,0.194c5.998,1.757,5.998,1.757,7.509,3.495
				c-1.043,0.097-1.983,0.184-3.668,0.34c2.973,0.969,5.238,1.639,7.456,2.447c3.938,1.436,4.441,1.775,5.902,3.633
				c-1.087-0.149-1.926-0.22-2.747-0.384c-4.062-0.805-8.115-1.658-12.183-2.427c-0.484-0.091-1.046,0.228-1.572,0.356
				c-0.899-0.483-1.828-1.299-2.551,0.223c-0.86-0.74-1.692-1.666-2.857-0.445c-0.229-0.153-0.452-0.318-0.69-0.457
				c-0.114-0.068-0.256-0.091-0.387-0.133c0.053,0.155,0.084,0.426,0.162,0.442c0.263,0.05,0.544,0.008,0.83,0.023
				c0.95,0.143,1.89,0.263,2.845,0.409c0.878-0.049,1.739-0.125,2.602-0.198c1.253,0.389,2.505,0.768,3.752,1.161
				c2.224,0.702,4.468,1.351,6.654,2.154c0.754,0.277,1.641,0.707,1.614,2.369c-1.493,0.843-3.181,1.055-5.031,0.229l0.094,0.144
				c-0.361-0.833-0.867-1.328-1.82-0.776l0.208-0.053c-1.14-0.288-2.267-0.671-3.423-0.845c-6.757-1.015-13.563-1.271-20.385-1.285
				c-1.035-0.002-2.082,0.066-3.102-0.064c-0.726-0.093-1.429-0.453-1.163-1.486c1.178-1.128,2.74-0.867,4.159-1.146
				c1.983-0.388,4.106-0.027,5.961-1.104c1.112,0.776,1.38-0.078,1.677-0.87c0.272,0.293,0.536,0.596,0.823,0.873
				c0.081,0.079,0.234,0.084,0.355,0.124c-0.037-0.163-0.021-0.408-0.119-0.471c-0.329-0.21-0.698-0.353-1.052-0.521
				c-0.549,0.324-1.098,0.649-1.646,0.974c-0.255-0.144-0.507-0.408-0.763-0.413c-5.134-0.085-10.266-0.148-15.399-0.199
				c-1.108-0.012-1.915,0.574-2.659,1.353c-0.984,1.03-1.736,2.366-3.223,2.804c-1.105-1.512,1.663-2.032,0.689-3.482
				c-2.479-0.245-4.551,0.463-6.236,2.441c-0.724,0.85-1.776,1.418-3.46,2.715c0.658-1.738,0.969-2.555,1.263-3.331
				c-0.566-0.25-0.965-0.424-1.363-0.6C152.104,104.75,152.792,104.233,153.563,103.913z M169.958,99.931
				c0.116-0.032,0.324-0.045,0.335-0.098c0.054-0.268,0.055-0.544,0.074-0.819c0.31,0.156,0.618,0.312,0.927,0.468
				c-0.295-0.165-0.591-0.331-0.888-0.496C170.257,99.3,170.107,99.617,169.958,99.931z M204.061,87.629
				c-0.969-1.158-1.82-2.175-2.848-3.401c-2.773-0.088-5.665,0.4-8.548,0.818c-0.472,0.068-0.833,0.895-1.783,1.993
				C195.802,87.26,199.76,87.437,204.061,87.629z M173.374,92.065c-3.144,1.068-3.144,1.068-6.304,4.125
				C170.237,95.809,171.302,93.891,173.374,92.065z M165.315,100.621c-2.278-0.676-2.278-0.676-4.092,0.943
				C162.429,101.286,163.635,101.008,165.315,100.621z M174.077,94.878c1.094,0.996,2.232,0.594,3.673,0.47
				c-0.452-0.763-0.825-1.39-1.461-2.463C175.302,93.776,174.776,94.248,174.077,94.878z M189.21,86.039
				c-0.271-0.213-0.477-0.511-0.666-0.5c-1.054,0.057-2.431-0.238-2.279,1.57C187.68,87.63,188.549,87.136,189.21,86.039z"/>
			<path fill="#32191F" d="M173.297,11.264c-2.892,0.977-3.873,2.512-5.04,3.759c-5.09,5.44-9.185,11.613-12.857,18.059
				c-7.353,12.906-13.288,26.481-18.686,40.296c-1.401,3.585-2.601,7.25-3.818,10.902c-0.205,0.615-0.029,1.357-0.03,2.681
				c1.045-1.038,1.809-1.527,2.187-2.225c0.845-1.559,1.621-3.179,2.21-4.849c4.104-11.615,9.044-22.875,14.589-33.862
				c5.544-10.986,11.535-21.719,19.239-31.395C171.712,13.85,172.194,12.958,173.297,11.264z"/>
			<path fill="#32191F" d="M108.324,86.249c-0.178,2.031-0.406,4.06-0.491,6.094c-0.016,0.405,0.52,0.831,0.956,1.479
				c1.769-2.521,2.298-5.127,3.137-7.602c2.648-7.817,5.066-15.725,9.467-23.959c-0.472,2.297-0.851,3.625-0.992,4.976
				c-0.122,1.161-1.251,2.496,0.485,3.724c0.593-0.961,1.19-1.766,1.618-2.651c2.887-5.969,5.757-11.947,8.584-17.945
				c0.6-1.274,1.518-2.145,2.713-2.795l0.004,0.014c0.511-1.98,1.022-3.961,1.502-5.818c-0.692-0.968-1.492-0.893-1.961-0.269
				c-1.862,2.478-3.63,5.028-5.399,7.575c-0.501,0.722-0.892,1.52-1.32,2.261c-0.392-0.14-0.66-0.238-1.215-0.438
				c-1.167,1.098-2.104,2.528-2.959,4.016c-4.874,8.486-9.203,17.216-12.091,26.609c-0.518,1.687-1.331,3.283-2.008,4.91
				C108.353,86.418,108.324,86.249,108.324,86.249z"/>
			<path fill="#32191F" d="M189.227,6.979c-0.755,0.397-1.614,0.673-2.25,1.211c-4.41,3.73-8.905,7.376-13.114,11.324
				c-4.029,3.779-6.725,8.629-9.617,13.282c-3.219,5.18-5.583,10.757-7.743,16.456c-0.93,2.451-2.571,4.652-4.023,6.878
				c-2.935,4.5-5.14,9.303-6.212,14.634c0.423-0.759,0.949-1.478,1.248-2.282c1.765-4.746,4.536-8.98,6.88-13.426
				c1.58-2.999,3.793-5.667,5.352-8.674c3.771-7.271,8.539-13.876,13.307-20.48c1.725-2.389,3.688-4.647,5.783-6.719
				c3.363-3.324,6.414-6.98,10.25-9.826c0.49-0.363,0.595-1.245,0.876-1.886C189.717,7.306,189.472,7.142,189.227,6.979z"/>
			<path fill="#32191F" d="M250.13,27.388c2.664-0.727,3.844-2.967,5.057-5.103c0.602-1.061-0.6-2.404-1.881-2.158
				c-1.27,0.244-2.511,0.627-4.271,1.079c0.694-1.337,1.137-2.22,1.609-3.085c0.354-0.646,0.84-1.233,1.105-1.909
				c0.594-1.51-0.498-3.244-2.121-3.099c-1.743,0.156-3.491,0.601-5.156,1.159c-1.247,0.417-2.372,1.205-3.542,1.846
				c-1.146,0.628-2.146,1.44-3.673,1.225c-0.736-0.104-1.643,0.546-2.381,1.003c-3.509,2.173-7.091,4.25-10.437,6.657
				c-2.014,1.449-3.655,3.42-5.42,5.202c-0.237,0.24-0.213,0.74-0.444,1.644c1.109-0.748,1.825-1.214,2.524-1.706
				c2.301-1.619,4.576-3.277,6.909-4.849c0.572-0.386,1.563-0.904,1.957-0.673c1.883,1.101,3.072-0.194,4.434-0.989
				c3.448-2.018,6.87-4.085,10.358-6.033c1.373-0.766,2.821-1.521,4.733-1.539c0.197,2.361-1.496,3.629-2.409,5.175
				c-0.892,1.512-2.146,2.811-3.193,4.143c0.242,1.113,0.959,1.226,1.693,0.889c1.073-0.491,2.061-1.166,3.116-1.702
				c1.161-0.59,2.359-1.111,3.984-1.871c-0.235,2.301-2.111,3.193-2.506,4.822C250.18,27.521,250.13,27.388,250.13,27.388z"/>
			<path fill="#32191F" d="M246.801,57.209c-1.283,1.534-3.262,1.099-4.864,1.722c-0.654,0.256-1.27,0.621-1.886,0.967
				c-0.086,0.048-0.072,0.276-0.175,0.737c3.699,0.841,7.86,0.01,11.53,2.675c-0.743,0.48-1.167,0.959-1.652,1.035
				c-2.628,0.409-5.267,0.74-7.907,1.049c-1.171,0.137-2.377,0.055-3.523,0.286c-0.398,0.081-0.955,0.835-0.915,1.227
				c0.045,0.431,0.649,1.065,1.093,1.144c1.152,0.204,2.353,0.126,3.529,0.207c2.236,0.152,4.319,0.673,6.179,2.669
				c-0.827,0.648-1.402,1.436-2.116,1.596c-2.158,0.483-4.359,0.877-6.563,1.019c-2.951,0.19-5.921,0.07-8.877,0.194
				c-0.419,0.018-1.094,0.635-1.136,1.028c-0.043,0.405,0.494,1.215,0.86,1.271c5.492,0.813,10.927,0.657,16.215-1.249
				c0.277-0.1,0.551-0.222,0.812-0.361c2.47-1.321,2.901-2.911,1.471-5.435c-0.196-0.347-0.431-0.671-0.738-1.144
				c1.293-0.643,2.494-1.18,3.633-1.825c0.929-0.526,1.718-1.253,1.48-2.478c-0.214-1.106-0.948-1.839-1.995-2.193
				c-0.698-0.235-1.446-0.312-2.157-0.509c-0.547-0.152-1.069-0.381-1.798-0.647c2.04-1.637,4.879-1.074,6.54-3.227
				c-1.094-1.166-2.309-0.065-3.349-0.354c-2.784-2.356-2.784-2.356-5.993-0.73c0.138,1.53,1.809,0.591,2.352,1.454
				c0.005-0.648,0.394-0.62,0.824-0.438c0.096,0.041,0.131,0.231,0.193,0.353C247.511,57.235,247.156,57.223,246.801,57.209z"/>
			<path fill="#32191F" d="M238.09,46.665c-0.708,0.01-1.487-0.168-2.109,0.069c-1.232,0.472-2.409,1.116-3.552,1.786
				c-4.969,2.909-9.93,5.83-14.862,8.8c-1.231,0.741-2.686,1.305-3.198,2.83c0.162,0.841,0.809,0.922,1.341,0.74
				c0.972-0.333,1.91-0.79,2.818-1.278c10.935-5.89,22.435-10.553,33.803-15.5c1.061-0.462,2.248-0.714,3.401-0.862
				c1.544-0.197,2.757-0.827,3.971-2.266c-0.757-0.402-1.353-0.996-1.9-0.955c-1.461,0.11-2.935,0.375-4.34,0.791
				c-2.545,0.755-5.046,1.66-7.562,2.509c-1.105,0.373-2.157,1.04-3.403,0.583c0.001-0.002,0.113,0.047,0.113,0.047
				c-0.28-0.199-0.562-0.397-0.843-0.597c0.19,1.017-0.252,1.644-1.175,2.053c-0.792,0.351-1.541,0.794-2.31,1.197L238.09,46.665z"
				/>
			<path fill="#32191F" d="M200.439,109.709c-1.949,1.206-4.001,0.565-5.982,0.221c-6.892-1.199-13.824-1.333-20.781-0.964
				c-1.17,0.063-2.343,0.297-3.482,0.581c-0.335,0.084-0.809,0.636-0.778,0.928c0.055,0.518,0.332,1.292,0.717,1.44
				c0.936,0.363,1.979,0.541,2.99,0.594c5.022,0.27,10.051,0.411,15.07,0.727c3.975,0.249,7.943,0.448,11.804,1.761
				c1.872,0.636,4.005,0.834,5.934,0.314c0.623-1.009,0.205-1.654-0.41-2.056c-0.859-0.561-1.888-0.866-2.731-1.444
				c-0.409-0.28-0.561-0.933-0.83-1.417l0.094,0.144c-0.607-0.259-1.214-0.517-1.82-0.776L200.439,109.709z"/>
			<path fill="#32191F" d="M133.801,47.568c-0.563,1.361-1.229,2.69-1.667,4.09c-1.018,3.244-1.944,6.517-2.861,9.792
				c-0.193,0.689-0.275,1.441-0.225,2.152c0.022,0.299,0.479,0.644,0.815,0.816c0.18,0.091,0.637-0.06,0.777-0.246
				c0.438-0.579,0.838-1.2,1.156-1.852c3.504-7.171,6.907-14.393,10.515-21.512c1.867-3.686,4.094-7.188,6.148-10.779
				c0.648-1.131,1.265-2.279,2.216-4c-1.117,0.358-1.773,0.368-2.075,0.699c-1.483,1.641-3.001,3.275-4.273,5.077
				c-3.244,4.592-6.23,9.348-8.553,14.494c-0.53,1.173-1.188,2.289-2.333,3.218c0.121-0.642,0.241-1.284,0.362-1.931
				C133.805,47.583,133.801,47.568,133.801,47.568z"/>
			<path fill="#32191F" d="M187.333,62.185c-1.151,1.312-2.303,2.625-3.339,3.806c0.351,1.233,1.066,1.431,1.794,1.09
				c1.2-0.559,2.352-1.235,3.473-1.945c11.48-7.277,23.127-14.261,35.455-20.043c0.26-0.122,0.465-0.356,0.713-0.552
				c-0.203-0.955-0.808-0.47-1.262-0.323c-8.482,2.719-16.403,6.664-24.108,11.074c-2.308,1.32-4.584,2.695-6.856,4.073
				c-1.392,0.843-2.776,1.666-4.493,1.552c0,0,0.182-0.083,0.181-0.083c-0.573,0.467-1.146,0.934-1.719,1.402L187.333,62.185z"/>
			<path fill="#32191F" d="M226.363,69.845c-0.76-0.259-1.502-0.616-2.283-0.76c-4.542-0.833-9.134-0.792-13.687-0.34
				c-8.844,0.877-17.531,2.609-25.979,5.422c-1.222,0.406-2.376,1.02-3.463,1.494c0.06,1.133,0.643,1.143,1.228,1.032
				c2.03-0.385,4.057-0.788,6.081-1.206c5.498-1.133,10.981-2.34,16.494-3.4c6.249-1.202,12.555-1.907,18.937-1.699
				c0.863,0.028,1.729-0.053,2.596-0.083C226.313,70.15,226.338,69.998,226.363,69.845z"/>
			<path fill="#32191F" d="M190.15,70.182c2.036,0.708,3.409-0.005,4.795-0.345c8.05-1.979,16.144-3.744,24.387-4.709
				c2.788-0.326,5.596-0.488,8.393-0.734c0.834-0.074,1.664-0.178,3.259-0.351c-2.891-1.561-5.28-1.446-7.601-1.513
				c-9.599-0.277-18.773,2.059-27.882,4.704C193.697,67.756,191.76,68.169,190.15,70.182z"/>
			<path fill="#32191F" d="M238.04,9.282c-0.28-0.074-0.584-0.252-0.84-0.201c-0.859,0.172-1.738,0.338-2.546,0.662
				c-8.337,3.349-15.381,8.609-21.751,14.839c-0.508,0.498-0.852,1.187-1.183,1.83c-0.097,0.185,0.033,0.597,0.198,0.778
				c0.172,0.189,0.588,0.387,0.764,0.303c0.776-0.375,1.545-0.794,2.243-1.298c5.628-4.056,11.217-8.166,16.869-12.188
				c1.779-1.267,3.518-2.681,5.823-3.009c0.292-0.042,0.577-0.604,0.726-0.98C238.413,9.839,238.153,9.531,238.04,9.282z"/>
			<path fill="#32191F" d="M162.675,89.033c-2.792-0.239-4.93,0.808-6.875,2.122c-2.806,1.897-5.756,3.726-8.117,6.105
				c-4.571,4.603-8.793,9.551-13.106,14.403c-0.65,0.731-1.011,1.72-1.102,2.965c0.632-0.458,1.342-0.839,1.88-1.39
				c2.993-3.061,5.891-6.216,8.922-9.238c4.823-4.812,10.103-9.081,15.744-12.904C160.947,90.469,161.793,89.724,162.675,89.033z"/>
			<path fill="#32191F" d="M248.658,29.716c-2.82,0.895-5.232,2.494-7.477,4.37c-0.14,0.117-0.018,0.546-0.017,1.117
				c4.725-0.131,8.853-2.773,13.831-3.329c-1.691,3.754-4.842,5.635-7.556,7.922l-0.065-0.136c0.386,0.103,0.901,0.42,1.138,0.278
				c3.429-2.063,6.401-4.687,9.022-7.696c1.044-1.198,0.516-2.738-1.036-2.99c-0.987-0.161-2.05-0.126-3.039,0.047
				c-1.589,0.28-3.144,0.751-4.715,1.128c-0.109,0.027-0.245-0.051-0.368-0.08c0.098-0.212,0.196-0.425,0.294-0.638L248.658,29.716z
				"/>
			<path fill="#32191F" d="M238.908,53.708c0.477,0.209,1.014,0.681,1.458,0.605c4.632-0.789,9.253-1.649,13.865-2.549
				c0.319-0.062,0.822-0.671,0.761-0.89c-0.138-0.488-0.513-0.975-0.921-1.299c-0.315-0.249-0.827-0.342-1.253-0.348
				c-4.785-0.063-9.339,0.816-13.433,3.438C239.187,52.794,239.146,53.17,238.908,53.708z"/>
			<path fill="#32191F" d="M160.011,84.142c2.387-0.937,3.687-1.893,5.765-4.248l0.065,0.11c-2.473,0.676-4.276,2.259-5.775,4.256
				L160.011,84.142z"/>
			<path fill="#32191F" d="M247.44,39.796c-0.577,0.405-1.153,0.809-2.161,1.516c0.832-0.098,1.332-0.014,1.48-0.204
				c0.31-0.396,0.432-0.938,0.622-1.434C247.375,39.66,247.44,39.796,247.44,39.796z"/>
			<path fill="#32191F" d="M238.283,46.612c0.498-0.7,0.996-1.4,1.495-2.1c-0.563,0.717-1.125,1.435-1.688,2.152L238.283,46.612z"/>
			<path fill="#32191F" d="M170.881,36.237c0.276-0.546,0.554-1.094,0.83-1.639c-0.07-0.028-0.141-0.055-0.21-0.083
				c-0.212,0.575-0.424,1.149-0.64,1.729C170.857,36.249,170.881,36.237,170.881,36.237z"/>
			<path fill="#32191F" d="M140.648,85.064c-1.045-0.515-1.533-0.164-1.511,0.986c0.006,0.014-0.049-0.119-0.042-0.105
				c0.562-0.285,1.117-0.584,1.674-0.883L140.648,85.064z"/>
			<path fill="#32191F" d="M140.769,85.063c-0.041-0.201-0.081-0.402-0.121-0.603c0.734,0.216,0.286,0.406-0.006,0.602
				C140.648,85.064,140.769,85.063,140.769,85.063z"/>
			<path fill="#32191F" d="M156.958,86.726c1.033,0.198,1.32-0.493,1.528-1.279l0.05,0.086c-1.084-0.264-1.355,0.446-1.532,1.274
				L156.958,86.726z"/>
			<path fill="#32191F" d="M158.486,85.447c1.06,0.208,1.293-0.546,1.524-1.306c0,0.001,0.055,0.12,0.055,0.12
				c-0.994-0.157-1.374,0.423-1.529,1.272L158.486,85.447z"/>
			<path fill="#32191F" d="M165.775,79.895c1.033,0.182,1.321-0.516,1.537-1.3l0.061,0.133c-0.979-0.134-1.288,0.532-1.532,1.277
				L165.775,79.895z"/>
			<path fill="#32191F" d="M171.496,75.668c1.219-0.124,1.309-0.748,0.735-1.664l0.159-0.012c-0.271,0.599-0.541,1.197-0.813,1.794
				L171.496,75.668z"/>
			<path fill="#32191F" d="M242.61,43.959c0,0-0.112-0.049-0.113-0.047c0.108-0.213,0.215-0.43,0.322-0.645
				C242.749,43.497,242.681,43.728,242.61,43.959z"/>
			<path fill="#32191F" d="M248.671,29.709c0.487-0.771,0.974-1.541,1.459-2.316c0-0.005,0.05,0.128,0.048,0.122
				c-1.186,0.261-1.035,1.445-1.518,2.199C248.658,29.716,248.671,29.709,248.671,29.709z"/>
			<path fill="#32191F" d="M141.263,166.437c0.599,0.224,1.199,0.447,1.799,0.671c0,0.002-0.018,0.106-0.018,0.106
				c-0.602-0.261-1.202-0.521-1.804-0.783L141.263,166.437z"/>
		</g>
		<g>
			<path fill="#32191F" d="M223.529,213.186c-1.671-0.415-3.074-0.969-4.512-1.081c-3.287-0.255-5.97-1.544-8.399-4.439
				c-0.452-4.889-0.942-10.187-1.434-15.484c-0.068-0.734-0.029-1.502-0.231-2.2c-0.923-3.2,0.209-5.791,2.246-8.17
				c2.647-3.093,5.54-5.512,9.859-6.227c7.026-1.16,13.998-2.452,21.168-2.439c4.291,0.008,8.58-0.531,12.876-0.643
				c11.149-0.284,22.223,0.716,33.256,2.218c5.436,0.74,10.845,1.707,16.3,2.237c2.503,0.244,4.159,1.422,5.542,3.202
				c1.086,1.398,2,2.943,2.887,4.481c1.152,2.003,1.69,4.003,0.311,6.252c-0.572,0.934-0.535,2.265-0.688,3.427
				c-0.503,3.817-1.037,7.636-1.419,11.467c-0.281,2.819-1.891,4.48-4.239,5.751c-3.037,1.643-6.275,2.638-9.625,3.341
				c-1.004,0.21-2.009,0.421-2.999,0.63c-1.695,3.004-1.483,6.105-1.03,9.188c0.197,1.346,1.014,2.463,2.278,3.129
				c0.914,0.481,1.814,1.049,2.793,1.343c3.829,1.154,7.646,2.411,11.546,3.259c4.485,0.975,9.044,1.634,13.592,2.289
				c6.523,0.941,12.625,3.228,18.638,5.758c2.942,1.239,5.137,3.479,6.56,6.392c0.864,1.767,1.338,3.527,0.738,5.563
				c-0.364,1.231-0.274,2.627-0.226,3.944c0.147,3.995,0.456,7.986,0.554,11.982c0.203,8.237-1.276,16.24-3.894,24.009
				c-2.799,8.306-6.392,16.279-11.097,23.699c-2.699,4.256-5.582,8.394-8.373,12.59c-0.308,0.461-0.555,0.962-1.023,1.783
				c3.97,0.554,7.606,0.82,11.247,1.09c3.616,0.268,7.333-0.099,10.762,1.812c-1.906,0.057-3.813,0.174-5.72,0.155
				c-5.341-0.054-10.678-0.169-16.018-0.245c-0.888-0.012-1.792-0.033-2.663,0.11c-1.105,0.18-1.853,0.846-2.015,2.025
				c0.258,0.152,0.508,0.426,0.75,0.421c2.438-0.043,4.82-0.383,7.309,0.248c2.258,0.57,4.71,0.409,7.079,0.501
				c5.481,0.211,10.969,0.324,16.449,0.583c3.371,0.159,6.768,0.199,10.078,1.075c-8.13,0.729-16.252-0.197-24.761,0.193
				c-0.286,0.444-0.732,1.136-1.149,1.783c0.334,0.365,0.49,0.692,0.723,0.76c0.56,0.16,1.161,0.167,1.733,0.297
				c1.954,0.439,3.915-1.814,5.858,0.023c2.074,0.051,4.149,0.104,6.224,0.152c2.224,0.054,4.448,0.075,6.671,0.16
				c2.072,0.08,4.142,0.223,6.214,0.342s4.147,0.212,6.216,0.38c0.647,0.053,1.278,0.309,1.87,0.46
				c-0.088,1.215-0.834,1.106-1.329,1.102c-6.675-0.06-13.351-0.072-20.019-0.303c-2.228-0.076-3.506,0.911-4.986,2.712
				c1.599,0.665,2.914,0.406,4.174,0.444c1.482,0.044,2.969-0.015,4.451,0.018c1.256,0.026,2.512,0.118,3.753,0.728
				c-3.534,0.103-7.068,0.208-10.603,0.306c-1.91,0.051-3.877-0.255-5.588,0.981c-0.197,0.142-0.693,0.227-0.774,0.122
				c-1.57-2.003-3.588-0.448-5.365-0.63c-1.277-0.132-2.473,0.56-3.271,2.134c2.008,0.722,3.927,0.328,5.785,0.42
				c2.072,0.104,4.147,0.19,6.223,0.233c1.928,0.038,3.857,0.008,5.786,0.008c2.077,0,4.154-0.027,6.231,0.009
				c1.904,0.031,3.808,0.131,6.541,0.23c-1.181,0.546-1.547,0.853-1.926,0.869c-3.701,0.171-7.403,0.369-11.107,0.418
				c-9.491,0.124-18.985,0.174-28.477,0.265c-0.887,0.008-1.816-0.04-2.644,0.21c-0.606,0.185-1.078,0.814-2.213,1.733
				c7.67,0.257,14.612,0.42,21.547,0.74c6.923,0.321,13.899-0.286,20.848,0.985c-0.311,1.178-1.135,0.724-1.655,0.733
				c-2.966,0.062-5.935,0.038-8.902,0.038c-17.804,0.001-35.607,0.036-53.411-0.024c-4.146-0.015-8.289-0.414-12.436-0.519
				c-3.85-0.096-7.731-0.343-11.547,0.02c-8.319,0.792-16.599,0.421-24.86-0.417c-9.591-0.972-19.125-2.397-28.381-5.211
				c-2.109-0.642-4.128-1.598-6.16-2.477c-0.95-0.409-1.797-1.054-2.748-1.459c-7.86-3.347-13.84-9.067-19.344-15.354
				c-12.266-14-20.348-30.15-24.503-48.259c-1.192-5.199-2.091-10.465-1.995-15.841c0.124-7.048,1.523-13.832,4.405-20.269
				c0.59-1.315,1.545-2.523,2.53-3.598c2.633-2.872,5.77-5.068,9.345-6.672c6.005-2.692,12.192-4.445,18.829-4.812
				c5.019-0.277,10.016-1.063,14.999-1.784c1.58-0.229,3.097-0.944,4.621-1.496c4.06-1.469,5.475-4.801,5.746-8.695
				C224.063,218.21,223.696,215.982,223.529,213.186z M283.943,229.562c0.978-0.263,1.955-0.525,2.933-0.788
				c-1.127-0.195-2.506-1.055-2.907,0.721c-0.113,0.029-0.228,0.081-0.34,0.076c-0.096-0.005-0.189-0.073-0.284-0.113
				C283.545,229.492,283.744,229.528,283.943,229.562z M325.859,308.869c1.678-0.818,3.354-1.637,5.03-2.456
				c-2.109-0.455-3.754,0.253-5.121,1.633c-0.111,0.112,0.07,0.517,0.112,0.79c-0.325-0.024-0.651-0.049-0.977-0.074
				C325.222,308.798,325.541,308.833,325.859,308.869z M305.589,334.184c0.376-0.177,0.873-0.256,1.11-0.547
				c5.061-6.169,9.404-12.809,12.922-19.974c0.239-0.486,0.161-1.129,0.23-1.699c0.887-0.036,0.908-0.43,0.428-1.032
				c-0.144,0.233-0.311,0.457-0.414,0.705c-0.045,0.108,0.044,0.272,0.073,0.41c-0.343,0.225-0.806,0.37-1.01,0.685
				c-4.313,6.626-8.606,13.265-12.865,19.925c-0.283,0.44-0.262,1.073-0.382,1.617c-1.176,0.87-1.176,0.87-1.3,2.356
				C304.785,335.815,305.187,335,305.589,334.184z M289.216,248.46c-2.032,0.128-4.065,0.256-6.317,0.397
				c0.68-2.491,2.919-1.391,4.36-2.48c-4.255-0.564-8.142,1.294-12.557,0.144c0.885-0.527,1.41-1.055,2.01-1.163
				c3.91-0.706,7.83-1.353,11.76-1.941c0.935-0.14,1.7-0.395,2.236-1.201c0.95,0.057,1.899,0.113,2.85,0.17
				c-0.008-0.171-0.017-0.341-0.023-0.512c-0.939,0.112-1.878,0.224-2.818,0.334c-9.265,0.969-18.528,1.941-27.794,2.889
				c-0.329,0.032-0.688-0.21-1.032-0.322c0.29-1.094,1.107-1.073,1.809-1.178c4.398-0.653,8.816-1.191,13.197-1.944
				c7.451-1.282,14.837-2.888,22.024-5.275c0.786-0.262,1.488-0.779,2.354-1.245c-1.288-1.789-3.221-1.024-4.591-1.773
				c-1.551-0.849-3.106-1.687-4.778-2.593c-3.512,1.438-7.113,2.705-10.986,3.14c-8.712,0.976-17.466,0.875-26.203,1.182
				c-1.62,0.057-3.247-0.115-4.739-0.925c0.209-0.274,0.347-0.661,0.569-0.716c5.442-1.36,11.113-0.904,17.725-2.074
				c-1.134-0.557-1.507-0.877-1.902-0.907c-1.328-0.101-2.664-0.104-3.999-0.133c-5.485-0.116-10.974-0.213-16.46-0.35
				c-0.817-0.021-1.84,0.03-1.616-1.444c4.624-1.214,9.415-0.784,15.073-1.588c-7.039-1.884-13.585-0.555-19.753-2.838
				c0-1.417,0-2.71,0-4.103c-1.683-0.625-3.179-0.988-4.65-0.629c-1.382,2.879-1.114,6.419-4.779,8.015
				c0-1.32-0.047-2.305,0.01-3.281c0.154-2.656,0.415-5.307,0.506-7.963c0.044-1.262-0.8-1.817-2.217-1.724
				c-0.321,1.98-0.553,4.023-1.007,6.014c-0.46,2.014-0.97,4.048-1.771,5.94c-0.779,1.843-1.955,3.517-2.958,5.269
				c1.596,1.706,3.569,2.385,5.584,2.852c8.105,1.878,16.313,3.127,24.631,3.504c10.989,0.495,21.923-0.443,32.855-1.405
				c1.155-0.102,2.326-0.015,3.49-0.015c-2.958,0.98-5.974,1.515-8.99,2.041c-6.137,1.073-12.281,2.149-18.52,2.311
				c-13.067,0.337-26.077,0.027-38.77-4.587c-1.188,1.007-2.395,2.029-3.627,3.074c3.056,2.788,6.138,0.441,9.198,0.53
				c0.287,1.786,1.312,2.499,3.015,2.644c3.023,0.258,6.029,0.716,9.484,1.145c-2.457,1.201-2.638,1.262-4.505,1.116
				c-3.399-0.265-6.797-0.571-10.197-0.827c-1.004-0.075-2.084-0.253-2.898,1.081c1.166,0.347,2.231,0.759,3.334,0.973
				c2.183,0.42,4.39,0.706,6.577,1.103c0.726,0.132,1.434,0.419,1.181,1.576c-3.506,0.446-7.026,0.038-10.547-0.358
				c-2.063-0.231-4.118-0.562-6.188-0.695c-1.139-0.071-2.393-0.058-3.22,1.403c1.75,0.909,3.637,1.09,5.451,1.501
				c0.716,0.164,1.462,0.334,1.142,1.644c-1.41-0.085-2.878-0.108-4.328-0.276c-2.061-0.237-4.123-0.516-6.16-0.903
				c-1.233-0.234-2.356-0.175-3.407,0.503c-0.175,0.113-0.224,0.42-0.301,0.575c0.202,1.224,2.638,0.536,1.836,2.734
				c-2.113-0.14-4.304-0.299-6.496-0.405c-0.178-0.009-0.372,0.332-0.593,0.544c0.35,0.523,0.705,1.051,1.232,1.838
				c-0.923,0.148-1.645,0.434-2.318,0.348c-3.232-0.418-6.491-0.762-9.662-1.476c-2.136-0.479-4.158-1.494-6.19-2.363
				c-0.394-0.169-0.601-0.772-1.012-1.335c1.887-0.659,3.225,0.296,4.636,0.531c1.452,0.243,2.849,0.805,4.283,1.176
				c2.104,0.546,2.11,0.526,4.168-0.143c-2.514-0.958-4.764-2.148-7.156-2.643c-2.979-0.615-4.729-2.758-6.826-4.511
				c-0.142-0.117-0.019-0.55-0.019-1.141c0.643,0,1.36-0.151,1.981,0.03c1.417,0.418,2.781,1.017,4.18,1.51
				c1.81,0.638,3.483,0.463,4.973-0.91c-0.027-1.307-1.979-1.603-1.852-3.464c1.82,0.643,3.319,1.22,4.848,1.703
				c2.417,0.762,4.235-0.664,6.119-1.79c0.087-0.053,0.093-0.238,0.117-0.306c-0.259-0.674-0.502-1.307-0.76-1.976
				c1.488-0.703,2.629-0.356,3.687,0.17c1.247,0.619,2.302,0.217,3.348-0.407c0.203-0.12,0.308-0.41,0.457-0.623
				c-0.459-0.815-0.917-1.625-1.73-3.064c2.354,0.634,4.014,1.081,5.682,1.53c2.241-1.125,4.7-1.711,6.913-3.614
				c-0.827-0.604-1.344-1.291-1.889-1.315c-1.163-0.053-2.4,0.058-3.504,0.419c-4.566,1.498-9.318,1.714-14.033,2.128
				c-7.652,0.671-14.8,2.931-21.532,6.559c-3.158,1.704-5.201,4.3-6.045,7.715c2.129,2.958,2.276,3.072,5.416,4.533
				c5.551,2.582,11.438,4.089,17.388,5.351c8.563,1.816,17.204,3.181,25.928,3.904c9.899,0.821,19.801,1.864,29.72,2.122
				c17.351,0.451,34.718,0.275,51.992-1.727c6.319-0.732,12.591-1.905,18.865-2.997c2.432-0.422,4.78-1.335,7.215-1.74
				c3.861-0.643,7.421-2.049,10.806-3.908c1.275-0.7,2.433-1.696,3.464-2.736c0.7-0.706,1.21-1.715,0.255-2.705
				c-0.31,0.072-0.671,0.047-0.848,0.214c-3.013,2.854-6.726,4.226-10.669,5.173c-8.231,1.976-16.588,3.202-24.98,4.196
				c-1.687,0.199-3.419,0.029-5.475,0.029c1.211-1.589,2.637-1.418,3.896-1.656c7.713-1.46,15.462-2.759,23.128-4.43
				c3.739-0.813,7.35-2.253,10.971-3.543c1.182-0.42,2.475-0.959,3.05-2.607c-0.678-0.541-1.335-1.065-2.135-1.703
				c-2.513,2.211-5.738,3.136-8.001,5.554c-0.336,0.361-1.042,0.4-1.59,0.534c-1.283,0.316-2.577,0.596-3.865,0.895
				c-2.737,0.635-5.456,1.371-8.218,1.881c-3.059,0.563-6.146,0.99-9.236,1.35c-5.301,0.616-10.609,1.153-15.921,1.67
				c-0.642,0.062-1.533,0.051-1.317-1.248c1.851-0.321,3.747-0.644,5.641-0.983c4.958-0.889,9.918-1.759,14.864-2.712
				c0.651-0.125,1.218-0.69,1.837-1.042c0.761,0.162,1.489,0.149,2.047-0.601c-0.651,0.231-1.304,0.462-1.954,0.692
				c-2.071,0.107-4.148,0.13-6.208,0.34c-3.831,0.391-7.648,0.91-11.477,1.328c-0.946,0.103-1.912,0.016-3.458,0.016
				c1.639-1.881,3.41-1.442,4.879-1.828c1.401-0.369,2.819-0.671,4.231-1.001c-1.714-0.453-3.326-0.381-4.934-0.249
				c-1.771,0.146-3.532,0.398-5.304,0.511c-1.548,0.098-3.134,0.407-4.591-0.083c-0.067-0.868-0.111-1.435-0.124-1.973
				c1.371,0.103,2.742,0.206,4.113,0.309C291.928,247.965,290.571,248.153,289.216,248.46z M235.691,324.48l-0.019,0.036
				c-0.327-1.556-0.707-3.103-0.958-4.67c-0.158-0.984-0.247-2.015-0.138-3c0.095-0.862,0.54-1.682,0.759-2.538
				c0.052-0.202-0.184-0.478-0.304-0.754c-0.654,0.454-1.302,0.902-1.979,1.373c-2.438-4.319-3.39-8.41,0.187-12.599
				c0.602,0,1.334-0.035,2.063,0.006c3.699,0.204,7.396,0.568,11.097,0.618c12.756,0.174,25.514,0.328,38.269,0.315
				c9.646-0.012,19.256-0.811,28.813-2.082c3.045-0.404,6.037-1.216,9.053-1.84c-1.687-0.817-3.254-0.291-4.839-0.105
				c-1.62,0.19-3.246,0.335-4.866,0.519c-1.62,0.183-3.233,0.413-4.856,0.577c-1.475,0.148-2.958,0.221-4.435,0.356
				c-1.623,0.152-3.239,0.385-4.864,0.494c-1.627,0.109-3.265,0.198-4.892,0.13c-1.427-0.06-2.977,0.636-4.533-0.438
				c0.528-0.205,0.782-0.347,1.053-0.405c9.552-2.074,19.106-4.139,28.659-6.21c0.721-0.157,1.51-0.307,0.894-1.39
				c-3.923,0.649-7.825,1.341-11.742,1.932c-4.53,0.683-9.005,1.858-13.675,1.218c-3.668-0.503-7.371-0.75-11.048-1.199
				c-0.972-0.117-1.904-0.561-3.668-1.107c4.637-0.843,8.409-1.531,12.182-2.219c3.79-0.688,7.615-1.229,11.361-2.11
				c3.657-0.859,7.574-0.718,10.982-2.733c-0.698-0.281-1.372-0.362-2.022-0.269c-12.317,1.789-24.677,3.354-36.931,5.51
				c-6.12,1.078-12.082,0.721-18.122,0.091c-0.94-0.099-1.85-0.498-3.29-0.903c0.994-0.249,1.415-0.38,1.845-0.457
				c2.916-0.533,5.826-1.105,8.753-1.567c2.924-0.462,5.862-1.073,8.804-1.135c3.02-0.064,5.742-1.137,8.605-1.718
				c3.628-0.738,7.303-1.246,10.949-1.904c1.544-0.28,3.104-0.579,5.199-1.52c-2.332-0.494-3.944-0.224-5.526-0.012
				c-6.761,0.902-13.527,1.761-20.26,2.842c-3.401,0.547-6.779,0.709-10.19,0.479c-4.287-0.285-8.572-0.628-12.858-0.969
				c-0.734-0.06-1.631,0.008-2.164-0.379c-2.168-1.577-4.448-1.153-6.817-0.767c-3.647,0.597-7.301,0.253-10.9-0.844
				c0-0.625,0-1.271,0-2.073c-3.245,2.704-3.245,2.704-6.265,1.815c-0.482-1.26-0.749-2.514-0.05-3.833
				c0.693-1.307,1.302-2.656,1.943-3.991c0.308-0.641,0.844-1.251,0.117-2.292c-1.537,2.075-4.263,2.894-5.02,5.654
				c-0.102,0.364-0.553,0.661-0.888,0.931c-1.019,0.819-2.108,0.91-2.827,0.247c-0.759-0.699-0.851-1.648-0.436-2.447
				c1.076-2.073,1.747-4.426,3.705-5.937c6.131-0.168,12.205-0.4,18.283-0.482c6.081-0.085,12.166-0.087,18.248-0.002
				c6.078,0.084,12.158,0.219,18.229,0.516c6.068,0.296,12.12,0.92,18.188,1.216c6.022,0.294,11.977,1.549,18.234,1.503
				c0.174-1.55,0.389-2.843,0.448-4.144c0.063-1.405,0.881-2.838-0.056-4.428c-39.578,4.624-78.972,4.399-118.166-3.819
				c-1.228,2.153-0.393,3.916,1.041,5.477c-2.467,1.767-1.162,3.972-1.197,6.176c1.42,0,2.569,0,3.909,0
				c0.324,3.183,0.634,6.228,0.959,9.416c-1.218,0.259-2.218,0.443-3.203,0.688c-1.093,0.271-1.155,0.541-0.502,2.381
				c1.169-0.098,2.342-0.297,3.5-0.226c0.327,0.021,0.66,0.809,0.873,1.297c0.069,0.159-0.234,0.479-0.448,0.881
				c-1.166,0.142-2.431,0.295-3.67,0.444c0.049,0.887,0.216,1.488,0.087,2.019c-0.357,1.481-0.079,2.571,1.399,3.282
				c0.155,0.075,0.071,1.095-0.192,1.477c-0.298,0.434-0.924,0.644-1.457,0.981c-1.012-0.692-1.93-1.319-2.869-1.963
				c0.375-0.418,0.635-0.608,0.749-0.863c0.107-0.248,0.136-0.578,0.076-0.845c-0.249-1.128-0.94-1.656-1.836-1.423
				c-0.869,0.228-1.161,0.87-1.019,1.684c0.227,1.291,0.521,2.569,0.784,3.834c3.514,1.464,7.256,1.59,10.83,2.943
				c-0.854,2.504-1.613,4.729-2.373,6.957c-0.648,0.311-1.289,0.614-1.918,0.94c-0.021,0.012,0.084,0.265,0.197,0.613
				c1.806,1.857,4.978,1.261,6.976,3.11c-0.598,1.737-1.961,1.013-3.022,1.084c-1.033,0.069-2.098,0.178-3.104,0
				c-1.002-0.177-1.947-0.687-3.482-1.263c1.441,2.407,2.536,4.328,3.717,6.193c6.591,10.405,15.072,19.022,24.949,26.324
				c2.492,1.843,4.911,3.479,8.209,3.975c3.956,0.597,7.856,1.463,11.886,1.316c0.585-0.021,1.165-0.183,2.136-0.345
				c-0.711-0.351-0.957-0.558-1.226-0.591c-4.704-0.575-9.412-1.118-14.117-1.689c-2.107-0.256-2.603-0.655-3.657-2.785
				c3.839-0.39,7.411,1.604,11.34,1.065c3.834-0.524,7.79,0.611,11.665-0.521c-2.877-0.684-5.771-1.085-8.693-1.359
				c-1.614-0.152-3.216-0.479-4.807-0.809c-0.697-0.146-0.841-0.712-0.536-1.513c4.942-0.753,10.059,0.126,15.085-0.904
				c-1.705-0.497-3.422-0.765-5.151-0.915c-1.771-0.153-3.553-0.179-5.33-0.28c-1.706-0.099-3.517,0.121-5.249-1.661
				c1.593-0.111,2.729-0.222,3.867-0.26c1.174-0.04,2.35-0.009,3.524-0.009c0.021-0.176,0.043-0.353,0.063-0.528
				c-2.543-0.495-5.086-0.991-7.77-1.514c-0.13-0.84-0.278-1.545-0.326-2.256c-0.015-0.226,0.242-0.469,0.43-0.801
				c4.065-0.466,8.266,0.379,12.38-0.598c-3.805-0.604-7.617-0.97-11.424-1.394c-0.862-0.097-1.826-0.212-2.513-0.668
				c-0.467-0.311-0.724-1.232-0.701-1.868c0.011-0.362,0.734-0.929,1.201-1.001c1.183-0.188,2.399-0.15,3.604-0.203
				c-0.013-0.197-0.025-0.395-0.038-0.592C236.307,324.48,235.999,324.48,235.691,324.48z M270.369,197.123
				c2.548-1.552,5.528-1.354,8.983-2.19c-5.149-0.55-26.925-0.485-30.22,0.051c-0.139,2.108-0.217,4.307-0.446,6.487
				c-0.239,2.291,0.164,4.647-0.459,7.152c-0.641-0.305-1.228-0.396-1.313-0.654c-0.365-1.106-0.71-2.248-0.825-3.4
				c-0.173-1.729-0.147-3.476-0.205-5.164c-1.283-0.38-1.658,0.124-1.173,0.974c0.581,1.017-0.432,1.639-0.361,2.482
				c0.061,0.736,0.127,1.472,0.189,2.21c0.07,0.807,0.139,1.614,0.24,2.813c-2.932-3.255-3.364-6.19-2.278-13.78
				c-1.178-0.266-2.389-1.193-3.283,0.588c-0.155,0.311-0.671,0.603-1.036,0.622c-2.051,0.11-2.61,1.894-3.32,3.215
				c-0.639,1.19-0.476,2.699-1.337,4.003c-0.704,1.066,1.143,1.363,1.51,2.227c-0.075,0.156-0.107,0.327-0.21,0.417
				c-1.634,1.437-3.638,0.949-5.407,0.699c-2.461-0.348-4.846-1.425-7.151,0.467c-0.249,0.204-0.877,0.066-1.284-0.061
				c-3.771-1.181-5.635-3.785-5.262-7.667c0.236-2.453,0.775-4.877,1.213-7.518c-1.158,0-2.271,0-3.395,0
				c-1.542,5.522,0.918,10.393,1.385,15.403c0.565,0.315,0.922,0.592,1.325,0.725c0.842,0.277,1.699,0.516,2.565,0.703
				c9.583,2.073,19.29,3.164,29.081,3.526c3.11,0.116,6.227,0.099,9.336,0.229c12.004,0.503,24.007,0.61,35.987-0.362
				c3.677-0.298,7.318-1.074,10.962-1.71c1.624-0.284,2.632-1.409,2.909-2.993c0.457-2.614,0.861-5.245,1.111-7.888
				c0.181-1.897-0.114-3.823,0.891-5.627c0.269-0.481-0.064-1.297-0.148-2.281c-1.361,0.637-2.383,1.113-3.36,1.57
				c1.54,5.95,0.042,11.212-3.757,15.905c-0.629-0.727-1.233-1.424-1.976-2.279c-1.121,1.04-2.061,1.912-3,2.783
				c-3.932-1.677-2.603-1.644-6.328,1.675c-0.291-0.736-0.567-1.356-0.786-1.996c-0.605-1.774-1.207-1.94-2.803-0.73
				c-0.444,0.338-0.865,0.704-1.378,1.124c-1.096-1.295-2.216-1.929-3.868-1.9c-6.522,0.108-13.05,0.055-19.575,0.033
				c-1.63-0.004-3.268-0.023-4.884-0.204c-0.636-0.07-1.223-0.596-2.361-1.19c7.676-2.055,14.992-0.755,22.486-1.835
				c-2.625-0.628-4.903-1.058-7.279-1.051c-2.962,0.005-5.929-0.095-8.887-0.268c-0.567-0.032-1.104-0.612-2.12-1.217
				c3-0.866,5.479-1.074,7.983-1.178c3.109-0.129,6.218-0.281,9.32-0.522c0.7-0.054,1.369-0.52,2.44-0.953
				C275.731,197.831,273.008,198.559,270.369,197.123z M259.669,184.005c-0.071,0.264-0.144,0.526-0.214,0.791
				c0.321,0.211,0.638,0.595,0.968,0.606c2.332,0.081,4.668,0.053,7.001,0.123c7.865,0.236,15.7-0.433,23.531-0.971
				c3.826-0.264,7.62-1.063,11.42-1.67c1.198-0.191,2.238-0.673,2.203-2.36c-1.428-0.385-2.837-0.823-4.272-1.139
				c-6.964-1.53-14.07-2.012-21.146-2.534c-6.053-0.448-12.145-0.46-18.22-0.447c-9.038,0.019-18.082,0.123-27.116,0.404
				c-4.136,0.129-8.264,0.705-12.382,1.203c-2.174,0.265-3.904,1.252-4.282,3.727c3.071,0.573,3.654,0.74,6.125-0.112
				c3.278-1.132,6.651-1.402,10.049-1.623c2.807-0.182,5.618-0.36,8.43-0.404c6.521-0.104,13.05,0.023,19.564-0.221
				c7.285-0.274,14.477,0.851,21.725,1.101c3.548,0.123,7.086,0.586,10.618,0.989c0.534,0.062,1.009,0.634,2.12,1.378
				c-6.685,0.241-12.584,0.474-18.487,0.662C271.426,183.698,265.548,183.841,259.669,184.005z M308.269,184.835
				c-2.659,0.646-4.916,1.386-7.231,1.72c-8.943,1.282-17.944,1.912-26.971,2.353c-14.555,0.71-29.021-0.316-43.438-2.024
				c-4.816-0.571-9.52-2.098-14.271-3.203c-1.7-0.396-1.912-0.256-3.025,2.444c2.998,0.773,5.929,1.704,8.93,2.271
				c9.028,1.703,18.104,3.07,27.341,2.775c0.592-0.02,1.187,0.026,1.778,0.048c4.732,0.174,9.468,0.534,14.198,0.484
				c9.03-0.096,18.057-0.508,27.088-0.63c5.519-0.074,10.877-1.104,16.241-2.192c0.23-0.048,0.396-0.401,0.744-0.771
				c-0.094-0.433-0.143-1.017-0.351-1.536C309.088,186.042,308.717,185.572,308.269,184.835z M183.265,307.336
				c3.214,9.759,20.428,28.897,27.628,30.881c-1.487-1.423-2.878-2.705-4.213-4.043c-1.459-1.46-2.877-2.964-4.299-4.461
				c-1.321-1.391-2.637-2.786-3.932-4.2c-1.297-1.413-2.582-2.837-3.838-4.286c-1.254-1.449-2.487-2.921-3.693-4.412
				c-1.299-1.606-2.532-3.265-3.839-4.865C185.921,310.53,185.049,308.852,183.265,307.336z M170.598,252.648
				c-2.981,6.848-2.754,21.877-0.002,27.177c1.762-0.279,2.519-1.274,2.29-3.069c-0.41-3.225-0.693-6.469-1.195-9.679
				c-0.315-2.019-0.073-4.151-1.195-6.044c-0.225-0.379-0.048-1.127,0.162-1.609C171.518,257.455,171.429,255.524,170.598,252.648z
				 M344.996,263.172c-0.35-0.066-0.698-0.133-1.047-0.199c-0.853,1.68-2.147,3.276-2.473,5.052
				c-0.769,4.196-1.077,8.474-1.569,12.709c1.108,1.123,2.161,2.092,3.853,2.224C345.536,276.356,345.077,269.754,344.996,263.172z
				 M293.492,342.256c5.197-4.541,11.886-13.558,15.722-20.76c1.805-3.387,3.332-6.923,4.919-10.42
				c0.237-0.521,0.114-1.204,0.159-1.812c-3.722,5.493-6.764,11.226-10.143,16.752C300.772,331.538,297.058,336.851,293.492,342.256
				z M306.293,313.268c-0.603,0.693-1.009,1.044-1.272,1.48c-4.342,7.205-8.675,14.415-12.974,21.645
				c-0.31,0.521-0.357,1.198-0.726,2.52C298.22,330.549,304.976,318.989,306.293,313.268z M242.133,222.527
				c6.952,0.358,13.048-0.046,19.128-0.88c-5.451-0.541-10.902-0.961-16.354-1.334c-0.557-0.037-1.224,0.066-1.673,0.359
				C242.845,220.928,242.689,221.542,242.133,222.527z M179.089,276.099c-0.368-2.491-0.572-4.546-1.004-6.55
				c-0.248-1.151-0.975-2.062-2.746-1.746c0.266,2.971,0.032,5.887,0.664,9.015C177.025,276.581,177.853,276.388,179.089,276.099z
				 M315.815,265.273c-0.934-0.548-1.711-0.714-2.241,0.176c0,2.15-0.001,4.185,0,6.218c0,0.728-0.091,1.473,0.043,2.174
				c0.054,0.283,0.597,0.652,0.92,0.654c0.316,0.003,0.892-0.388,0.916-0.645C315.716,270.979,316.455,268.116,315.815,265.273z
				 M182.148,293.345c0.222-0.233,0.443-0.465,0.667-0.698c-1.048-1.083-2.096-2.165-3.147-3.254
				c1.414-1.168,1.624-1.508,1.461-2.138c-0.308-1.173-1.204-1.145-2.111-1.008c-0.43,0.064-0.839,0.263-1.226,0.392
				c-1.166,3.273-1.138,3.486,1.33,5.105C180.073,292.369,181.136,292.817,182.148,293.345z M328.011,264.852
				c-1.423,0.703-2.297,1.474-2.43,2.716c-0.219,2.028-0.266,4.074-0.396,6.296c2.268-1.22,2.738-1.55,2.84-2.731
				C328.199,269.148,328.368,267.138,328.011,264.852z M187.144,274.511c1.236-0.369,1.895-0.566,2.491-0.745
				c0.411-4.46,0.102-4.963-3.262-4.979C186.606,270.523,186.834,272.217,187.144,274.511z M328.723,340.082
				c3.832,1.404,5.01,1.05,6.735-2.127C333.051,338.318,330.514,337.096,328.723,340.082z M319.405,269.245
				c2.481-1.296,3.431-2.999,2.346-5.568c-0.904,0.206-1.686,0.385-2.346,0.535C319.405,266.105,319.405,267.674,319.405,269.245z
				 M330.471,277.999c3.087-2.794,3.265-3.52,2.567-8.317C330.072,271.635,331.255,274.566,330.471,277.999z M330.823,348.762
				c-4.684-0.645-4.684-0.645-6.591,1.811C326.714,350.72,329.166,351.637,330.823,348.762z M331.422,266.807
				c0.698-0.334,1.32-0.436,1.397-0.699c0.404-1.368,0.747-2.77,0.927-4.182c0.04-0.313-0.674-1.017-1.027-1.007
				c-0.44,0.014-1.206,0.547-1.238,0.907C331.343,263.395,331.422,264.983,331.422,266.807z M338.919,346.329
				c2.711,0.426,4.978,0.673,6.211-2.302C342.566,343.389,340.454,343.491,338.919,346.329z M337.081,280.374
				c0.594-2.775,0.988-4.604,0.601-6.831c-2.138,1.202-2.576,2.959-2.43,4.879C335.29,278.911,336.081,279.343,337.081,280.374z
				 M195.671,249.462c2.009,0.559,3.536,1.125,5.113,1.367c0.816,0.123,1.795-0.265,1.424-1.555
				C200.202,248.326,198.216,247.157,195.671,249.462z M338.312,263.974c-3.039,1.659-2.573,3.954-2.215,6.589
				C338.425,268.774,339.031,266.763,338.312,263.974z M336.401,344.119c-2.285-0.74-4.113-0.602-5.693,1.431
				C333.91,346.694,333.988,346.674,336.401,344.119z M221.221,201.398c1.699,2.002,3.01,2.258,7.27,1.548
				c-0.204-0.398-0.342-1.048-0.588-1.093C225.75,201.47,223.578,201.237,221.221,201.398z M309.118,354.377
				c5.273,0.731,5.741,0.666,6.991-0.957C312.17,352.38,311.208,352.511,309.118,354.377z M175.489,259.702
				c-0.53,3.643-0.437,3.842,2.095,4.69C177.762,262.601,177.875,260.882,175.489,259.702z M298.118,318.492
				c3.928-4.573,4.134-5.074,3.353-7.271C300.278,313.809,299.198,316.151,298.118,318.492z M182.995,271.41
				c0.233-4.599,0.233-4.599-1.277-6.404C180.944,267.142,181.262,268.893,182.995,271.41z M345.382,256.832
				c-3.377,1.177-4.291,2.227-4.358,4.421c-0.008,0.226,0.538,0.468,0.958,0.807C343.014,260.472,343.953,259.028,345.382,256.832z
				 M296.925,353.161c-0.251-0.113-0.528-0.361-0.75-0.32c-1.971,0.371-3.932,0.794-6.614,1.351
				C295.44,355.122,295.919,355.038,296.925,353.161z M299.898,354.742c2.648-0.228,4.778,0.829,6.315-1.53
				C304.067,352.509,302.15,352.342,299.898,354.742z M322.114,340.142c2.828,0.573,2.828,0.573,4.297-1.744
				C323.84,337.994,323.829,337.986,322.114,340.142z M186.694,263.5c-0.358,2.258-0.358,2.258,2.505,3.806
				C189.772,265.437,189.772,265.437,186.694,263.5z M190.847,285.243c0.008-1.141-0.466-1.76-1.401-1.744
				c-0.841,0.013-1.348,0.448-1.283,1.33c0.062,0.843,0.027,1.783,1.16,2.021C190.168,287.028,190.841,286.311,190.847,285.243z
				 M210.254,245.6c-3.396-0.578-3.396-0.578-4.938,1.234C207.079,247.46,208.666,247.467,210.254,245.6z M186.076,259.428
				c0.656,2.057,1.897,2.63,3.014,3.287c0.134,0.08,0.752-0.339,0.87-0.638c0.141-0.353-0.018-0.826-0.058-1.44
				C188.819,260.295,187.738,259.954,186.076,259.428z M315.9,350.073c2.178,0.537,4.109,0.988,5.666-1.307
				C319.433,348.225,317.518,347.858,315.9,350.073z M327.67,344.297c-3.421-0.826-3.421-0.826-5.04,1.518
				C324.602,346.012,326.453,346.464,327.67,344.297z M181.235,257.794c-0.211,1.755-0.795,3.291,1.312,4.474
				C182.739,260.501,183.494,258.921,181.235,257.794z M312.232,348.488c-2.231-0.522-3.538,0.008-4.685,1.489
				C309.354,350.819,310.703,350.425,312.232,348.488z M314.692,345.211c1.327,0.691,2.272,0.47,3.19-0.144
				c0.487-0.325,1.076-0.658,0.585-1.301c-0.187-0.242-0.866-0.368-1.157-0.222C316.441,343.984,315.653,344.583,314.692,345.211z
				 M245.182,197.18c1.202-0.257,1.843-1.318,1.501-2.129c-0.353-0.834-1.138-0.857-1.865-0.664
				c-0.688,0.181-0.893,0.811-0.641,1.389C244.42,196.337,244.896,196.795,245.182,197.18z M321.498,272.306
				c-1.343-0.063-1.95,0.768-2.259,1.743c-0.125,0.398,0.133,1.129,0.467,1.415c0.551,0.473,1.679,0.065,1.766-0.592
				C321.582,274.034,321.498,273.167,321.498,272.306z M315.876,340.133c1.881,0.248,2.809-0.727,3.93-2.067
				C317.738,337.608,316.776,338.519,315.876,340.133z M177.111,258.267c0.173-0.483,0.306-0.738,0.353-1.009
				c0.18-1.051-0.473-1.555-1.331-1.836c-0.197-0.064-0.604,0.091-0.721,0.271c-0.61,0.947,0.048,1.562,0.68,2.132
				C176.285,258,176.592,258.048,177.111,258.267z M282.028,224.128c0.026,0.159,0.055,0.317,0.082,0.476
				c0.788-0.044,1.603,0.015,2.354-0.17c0.523-0.129,0.926-0.605,0.165-1.293C283.805,223.456,282.916,223.792,282.028,224.128z
				 M306.28,238.727c-0.052-0.179-0.103-0.356-0.153-0.534c-0.691,0-1.401-0.094-2.063,0.045c-0.274,0.057-0.445,0.609-0.662,0.937
				c0.377,0.167,0.811,0.543,1.12,0.459C305.144,239.463,305.698,239.043,306.28,238.727z M214.238,243.161
				c0.607,0.124,1.157,0.27,1.714,0.336c0.272,0.033,0.593-0.024,0.838-0.149c0.212-0.108,0.471-0.358,0.486-0.562
				c0.018-0.229-0.152-0.591-0.349-0.7C215.729,241.424,215.382,241.569,214.238,243.161z M234.973,215.552
				c-0.023,0.289-0.048,0.577-0.071,0.866c1.114,0,2.228,0,3.341,0c0.006-0.138,0.015-0.276,0.021-0.414
				C237.168,215.854,236.069,215.704,234.973,215.552z M185.72,291.659c-0.498,1.453-0.608,2.662,1.095,3.454
				C187.421,293.622,187.131,292.534,185.72,291.659z M323.746,292.818c1.821,0.046,1.821,0.046,2.858-1.041
				C325.428,291.542,324.386,291.575,323.746,292.818z M275.886,230.782c-1.118-0.557-2.225-0.936-3.243,0.224
				C273.724,230.931,274.805,230.857,275.886,230.782z M336.258,261.706c0.428-0.406,0.832-0.647,1.008-1.001
				c0.153-0.308,0.048-0.741,0.057-1.119c-0.412,0.022-0.908-0.085-1.216,0.105c-0.303,0.19-0.577,0.688-0.566,1.042
				C335.549,261.043,335.97,261.342,336.258,261.706z M256.212,185.318c-0.01-0.47,0.013-0.74-0.021-0.747
				c-0.523-0.105-1.056-0.221-1.585-0.22c-0.108,0-0.214,0.471-0.322,0.724C254.911,185.154,255.538,185.232,256.212,185.318z
				 M176.767,285.111c1.828-0.602,3.014-0.768,3.204-2.523C178.44,282.621,177.556,283.164,176.767,285.111z M182.598,272.955
				c-0.759,0.886-0.707,1.518-0.043,1.978c0.155,0.107,0.626-0.242,0.951-0.383C183.223,274.052,182.94,273.554,182.598,272.955z
				 M327.275,275.017c-0.325,0.756-0.564,1.313-0.803,1.87c0.272,0.075,0.62,0.296,0.807,0.2
				C328.151,276.639,327.967,275.995,327.275,275.017z M185.134,287.937c0.145-0.567,0.365-0.982,0.312-1.361
				c-0.052-0.366-0.341-0.738-0.62-1.009c-0.088-0.083-0.665,0.108-0.709,0.263c-0.111,0.382-0.167,0.871-0.013,1.21
				C184.256,287.374,184.696,287.574,185.134,287.937z M247.973,282.85c-0.014,0.107-0.026,0.216-0.04,0.324
				c0.365,0.036,0.731,0.085,1.099,0.097c0.069,0.002,0.143-0.138,0.215-0.212C248.821,282.99,248.397,282.92,247.973,282.85z
				 M229.424,192.347c-0.048-0.077-0.089-0.218-0.144-0.225c-0.271-0.031-0.542-0.025-0.813-0.034
				c0.063,0.144,0.128,0.407,0.187,0.405C228.911,192.488,229.167,192.404,229.424,192.347z M234.83,193.237
				c-0.105-0.052-0.206-0.131-0.316-0.147c-0.125-0.019-0.257,0.021-0.387,0.035c0.105,0.055,0.206,0.137,0.317,0.154
				C234.567,193.296,234.701,193.253,234.83,193.237z M331.531,290.978c-0.26,0-0.53-0.003-0.8,0.013
				c-0.008,0.001-0.007,0.177-0.01,0.272c0.27-0.003,0.54-0.004,0.809-0.022C331.537,291.24,331.531,291.061,331.531,290.978z
				 M190.846,288.458c-0.231-0.128-0.465-0.361-0.691-0.354c-0.228,0.008-0.446,0.254-0.67,0.396
				c0.232,0.132,0.468,0.372,0.696,0.367C190.405,288.861,190.625,288.605,190.846,288.458z M320.238,286.021
				c-0.008-0.162-0.017-0.325-0.024-0.486c-0.486,0.021-0.973,0.044-1.459,0.065c0.009,0.171,0.02,0.342,0.027,0.513
				C319.268,286.083,319.754,286.051,320.238,286.021z M297.282,240.952c-0.25,0.093-0.5,0.187-0.75,0.28
				c0.223,0.105,0.443,0.291,0.665,0.289c0.154-0.002,0.306-0.259,0.459-0.402C297.531,241.063,297.407,241.007,297.282,240.952z
				 M338.571,244.131c-0.026-0.104-0.054-0.209-0.08-0.313c-0.171,0.094-0.341,0.189-0.511,0.284
				c0.088,0.071,0.177,0.202,0.264,0.201C338.354,244.301,338.463,244.194,338.571,244.131z M333.922,242.316
				c-0.076-0.102-0.153-0.201-0.231-0.303c-0.084,0.095-0.239,0.19-0.237,0.284c0.002,0.114,0.135,0.227,0.211,0.341
				C333.75,242.53,333.837,242.423,333.922,242.316z M328.207,240.358c-0.234-0.092-0.45-0.201-0.678-0.248
				c-0.061-0.012-0.161,0.173-0.243,0.267c0.215,0.081,0.426,0.189,0.647,0.227C328.007,240.616,328.111,240.448,328.207,240.358z
				 M289.984,227.955c-0.02-0.093-0.013-0.231-0.07-0.27c-0.093-0.061-0.23-0.057-0.349-0.08c0.03,0.153,0.058,0.306,0.088,0.458
				C289.763,228.027,289.874,227.99,289.984,227.955z M183.55,281.381c0.081,0.102,0.198,0.303,0.238,0.289
				c0.209-0.074,0.4-0.204,0.598-0.315c-0.201-0.096-0.397-0.213-0.609-0.271C183.732,281.071,183.627,281.277,183.55,281.381z
				 M294.656,202.862c0.021,0.085,0.018,0.215,0.07,0.244c0.094,0.053,0.221,0.046,0.335,0.063
				c-0.028-0.139-0.055-0.276-0.081-0.416C294.871,202.79,294.764,202.826,294.656,202.862z M224.81,191.518l0.019-0.215
				l-0.283,0.092L224.81,191.518z"/>
			<path fill="#32191F" d="M258.46,297.402c10.901-3.136,21.203-1.058,31.604,0.272c-0.795,0.256-1.574,0.591-2.389,0.752
				c-2.027,0.396-4.091,0.617-6.102,1.077c-3.945,0.903-7.854,1.113-11.817,0.085C266.212,298.667,262.442,298.839,258.46,297.402z"
				/>
			<path fill="#32191F" d="M257.359,287.505c-10.525,1.573-20.547,3.828-31.42,0.985c0.772-0.518,1.104-0.895,1.496-0.976
				c3.179-0.661,6.319-1.599,9.618-1.463c6.353,0.262,12.706,0.528,19.058,0.815C256.37,286.879,256.618,287.118,257.359,287.505z"
				/>
			<path fill="#32191F" d="M240.852,300.165c8.161-2.677,15.604-0.38,23.264,0.516c-0.255,0.355-0.385,0.689-0.509,0.687
				c-6.91-0.141-13.82-0.298-20.729-0.5C242.34,300.851,241.812,300.509,240.852,300.165z"/>
			<path fill="#32191F" d="M235.607,294.443c4.018-1.696,5.199-1.679,18.75,0.002C250.063,296.585,246.035,296.616,235.607,294.443z
				"/>
			<path fill="#32191F" d="M198.731,273.023c1.084-0.053,2.174-0.105,3.116-0.15c0.313,0.496,0.56,0.72,0.591,0.969
				c0.248,2.032,0.539,4.065,0.646,6.107c0.071,1.311-0.643,2.207-2.039,2.396C199.47,280.217,198.842,277.759,198.731,273.023z"/>
			<path fill="#32191F" d="M209.955,279.04c-1.635-2.445-1.051-4.494,0.464-6.29c1.334-1.581,3.195-0.945,4.986-0.895
				C212.718,277.631,212.718,277.631,209.955,279.04z"/>
			<path fill="#32191F" d="M208.151,325.482c-3.321-1.465-4.489-4.414-6.535-6.813c3.059,0.015,4.577,0.357,7.293,1.584
				C208.687,321.791,208.462,323.34,208.151,325.482z"/>
			<path fill="#32191F" d="M225.88,311.298c-2.803-3.354-2.47-5.364,0.302-8.7C228.72,306.167,228.703,307.153,225.88,311.298z"/>
			<path fill="#32191F" d="M217.124,336.536c0.271-0.098,0.592-0.347,0.804-0.274c2.763,0.943,5.516,1.911,8.245,2.942
				c0.303,0.115,0.445,0.653,0.675,1.017c-2.952,1.107-3.758,1.067-5.623-0.406c-1.377-1.089-2.697-2.248-4.043-3.376
				L217.124,336.536z"/>
			<path fill="#32191F" d="M219.103,331.866c-6.971-0.527-6.971-0.527-9.128-3.641c2.169-0.577,4.055,0.521,6.019,0.788
				c0.663,0.09,1.337,0.584,1.862,1.054C218.334,330.495,218.615,331.139,219.103,331.866z"/>
			<path fill="#32191F" d="M228.387,298.63c0.418-2.005,0.78-2.463,2.003-2.328c1.903,0.209,3.797,0.516,6.245,0.857
				C233.718,298.708,231.102,298.773,228.387,298.63z"/>
			<path fill="#32191F" d="M204.341,307.728c-1.35-0.182-2.45-0.331-3.58-0.483c-0.109-0.594-0.353-1.065-0.228-1.397
				c0.392-1.034,0.922-2.016,1.6-3.435C203.398,304.22,204.251,305.596,204.341,307.728z"/>
			<path fill="#32191F" d="M227.801,316.795c0.9-0.044,1.748-0.148,2.592-0.11c1.171,0.05,1.766,0.686,1.58,1.548
				c-0.249,1.153-1.152,1.863-2.182,1.649C228.247,319.561,227.69,318.535,227.801,316.795z"/>
			<path fill="#32191F" d="M225.176,298.13c-0.313,0.294-0.719,0.966-1.286,1.15c-1.122,0.364-1.999-0.688-1.955-2.203
				c0.024-0.869,0.524-1.327,1.38-1.304C224.448,295.806,225.112,296.556,225.176,298.13z"/>
			<path fill="#32191F" d="M198.064,313.691c1.765-0.057,3.069,0.023,4.152,0.881c0.268,0.213,0.478,0.798,0.374,1.094
				c-0.108,0.314-0.618,0.688-0.956,0.691C200.022,316.372,198.867,315.613,198.064,313.691z"/>
			<path fill="#32191F" d="M219.51,321.318c1.054-0.651,2.021-0.749,2.878,0.026c0.562,0.509,0.835,1.293,0.256,1.884
				c-0.31,0.315-1.053,0.414-1.535,0.31C219.946,323.285,219.754,322.259,219.51,321.318z"/>
			<path fill="#32191F" d="M230.22,315.27c-0.65-0.243-1.286-0.48-2.134-0.796c0.441-1.139,0.788-2.034,1.125-2.904
				C230.38,311.862,230.737,313.366,230.22,315.27z"/>
			<path fill="#32191F" d="M226.804,321.04c0.983,0.707,1.626,1.539,1.122,2.838c-0.729,0.598-1.413,0.252-1.91-0.209
				C225.176,322.889,225.343,322.451,226.804,321.04z"/>
			<path fill="#32191F" d="M206.206,303.708c-0.496-1.652-0.805-2.674-1.145-3.807C207.766,300.11,207.957,300.602,206.206,303.708z
				"/>
			<path fill="#32191F" d="M197.229,295.348c0.521-0.798,1.031-1.582,1.507-2.311c1.295,0.451,1.653,1.334,1.252,2.142
				C199.423,296.312,198.398,296.146,197.229,295.348z"/>
			<path fill="#32191F" d="M205.096,276.827c-0.526-1.203-0.793-1.564-0.835-1.95c-0.221-1.946,0.125-2.164,2.734-1.58
				C206.457,274.297,205.954,275.233,205.096,276.827z"/>
			<path fill="#32191F" d="M209.046,306.018c0.329,0.424,0.534,0.628,0.668,0.871c0.331,0.596,0.889,1.19,0.289,1.896
				c-0.126,0.146-0.538,0.203-0.731,0.113c-0.839-0.387-1.416-0.966-0.976-1.984C208.399,306.676,208.638,306.498,209.046,306.018z"
				/>
			<path fill="#32191F" d="M235.691,324.48c-0.972,0-1.943,0-3.246,0c0.219-1.127,0.384-1.98,0.571-2.947
				c1.803,0.496,1.799,2.1,2.656,2.979C235.673,324.516,235.691,324.48,235.691,324.48z"/>
			<path fill="#32191F" d="M209.633,325.144c1.665-1.225,2.944-1.119,3.413,0.039c0.059,0.149-0.274,0.654-0.362,0.64
				C211.749,325.659,210.828,325.423,209.633,325.144z"/>
			<path fill="#32191F" d="M207.005,316.051c-0.1,1.245-0.887,1.321-1.771,0.924c-0.598-0.27-0.748-0.901-0.303-1.413
				c0.2-0.23,0.73-0.342,1.046-0.258c0.383,0.099,0.697,0.461,1.04,0.708L207.005,316.051z"/>
			<path fill="#32191F" d="M215.611,318.118c-0.761-0.145-1.539-0.211-2.24-0.479c-0.195-0.074-0.327-0.82-0.187-1.115
				c0.117-0.247,0.698-0.442,1.029-0.391C215.115,316.278,215.791,316.736,215.611,318.118z"/>
			<path fill="#32191F" d="M222.533,316.927c0.253-0.12,0.494-0.296,0.759-0.348c0.639-0.124,1.238,0.052,1.185,0.795
				c-0.036,0.479-0.323,1.178-0.69,1.34c-0.686,0.303-0.952-0.382-1.124-0.938C222.58,317.503,222.574,317.21,222.533,316.927z"/>
			<path fill="#32191F" d="M203.683,285.508c0.084,0.112,0.186,0.217,0.249,0.341c0.359,0.706,0.325,1.405-0.379,1.812
				c-0.234,0.136-1.004-0.113-1.074-0.332c-0.229-0.722,0.045-1.364,0.799-1.704C203.404,285.568,203.547,285.545,203.683,285.508z"
				/>
			<path fill="#32191F" d="M207.599,278.556c0.093,0.987,0.323,1.584,0.14,1.999c-0.183,0.415-0.827,0.953-1.184,0.897
				c-0.731-0.114-0.58-0.84-0.312-1.317C206.498,279.681,206.926,279.323,207.599,278.556z"/>
			<path fill="#32191F" d="M228.548,327.362c-0.823-0.357-1.65-0.729-0.895-1.814c0.11-0.16,0.584-0.244,0.776-0.144
				C229.515,325.962,229.273,326.657,228.548,327.362z"/>
			<path fill="#32191F" d="M217.182,336.438c-0.686-0.899-1.369-1.797-2.078-2.728c0.899-0.328,1.62-0.189,1.874,0.649
				c0.203,0.669,0.124,1.425,0.158,2.158C217.124,336.536,217.182,336.438,217.182,336.438z"/>
			<path fill="#32191F" d="M221.951,285.656c-0.757,0.5-1.146,0.902-1.599,1c-0.262,0.057-0.628-0.38-0.947-0.593
				c0.265-0.261,0.497-0.681,0.801-0.741C220.592,285.245,221.036,285.46,221.951,285.656z"/>
			<path fill="#32191F" d="M207.018,316.012c0.378-0.032,0.781,0.009,1.126-0.113c0.828-0.294,1.318-0.138,1.378,0.982
				c-0.881-0.289-1.698-0.559-2.517-0.828C207.005,316.051,207.018,316.012,207.018,316.012z"/>
			<path fill="#32191F" d="M210.345,311.927c0.185-0.167,0.37-0.334,0.555-0.502c0.185,0.315,0.37,0.631,0.555,0.945
				c-0.254,0.096-0.559,0.324-0.747,0.251C210.523,312.551,210.461,312.172,210.345,311.927z"/>
			<path fill="#32191F" d="M220.819,318.222c-0.183,0.172-0.366,0.341-0.548,0.511c-0.192-0.301-0.384-0.601-0.576-0.901
				c0.258-0.1,0.54-0.311,0.766-0.263C220.62,317.604,220.703,317.992,220.819,318.222z"/>
			<path fill="#32191F" d="M229.677,320.929c0.438,0.172,0.684,0.268,0.929,0.365c-0.133,0.336-0.266,0.672-0.398,1.008
				c-0.24-0.127-0.635-0.213-0.683-0.39C229.449,321.631,229.608,321.286,229.677,320.929z"/>
			<path fill="#32191F" d="M219.307,326.701c-0.244-0.271-0.502-0.558-0.76-0.844c0.286-0.168,0.681-0.541,0.839-0.46
				c0.291,0.153,0.446,0.569,0.658,0.878C219.832,326.397,219.619,326.52,219.307,326.701z"/>
			<path fill="#32191F" d="M223.769,313.726c-0.152,0.165-0.306,0.329-0.458,0.493c-0.085-0.236-0.198-0.468-0.244-0.713
				c-0.017-0.091,0.124-0.212,0.194-0.318C223.429,313.367,223.6,313.546,223.769,313.726z"/>
			<path fill="#32191F" d="M229.985,302.878c-0.164,0.247-0.313,0.472-0.463,0.698c-0.138-0.229-0.377-0.454-0.384-0.687
				c-0.005-0.19,0.27-0.388,0.419-0.582C229.701,302.5,229.846,302.693,229.985,302.878z"/>
			<path fill="#32191F" d="M225.438,326.847c-0.182,0.07-0.363,0.14-0.544,0.209c-0.027-0.219-0.077-0.441-0.066-0.658
				c0.002-0.064,0.18-0.119,0.276-0.18C225.215,326.427,225.327,326.637,225.438,326.847z"/>
			<polygon fill="#32191F" points="220.899,330.379 220.896,330.092 221.265,330.238 			"/>
			<polygon fill="#32191F" points="232.324,331.637 232.176,331.896 232.093,331.598 			"/>
		</g>
	</g>
</g>
</svg>
