<?xml version="1.0" encoding="utf-8"?>
<!-- Generator: Adobe Illustrator 23.0.1, SVG Export Plug-In . SVG Version: 6.00 Build 0)  -->
<svg version="1.1" id="Layer_1" xmlns="http://www.w3.org/2000/svg" xmlns:xlink="http://www.w3.org/1999/xlink" x="0px" y="0px"
	 viewBox="0 0 50 50" style="enable-background:new 0 0 50 50;" xml:space="preserve">
<style type="text/css">
	.st0{fill:#276F46;}
	.st1{fill:#8FC74C;}
</style>
<path class="st0" d="M48.6,15.5c0,0,0.4,28.6-10.9,33.7c0,0-8.6,4.7-24.8-9.5C12.9,39.7,34.5,44.9,48.6,15.5z"/>
<path class="st1" d="M33.9,21.2c0,0-7.2,12.3-14.5,14.3c0,0-9.4,3.1-14.1-3.3c0,0-9.9-9.2,0.4-18c0,0,10.6-10.2,26-13.4
	c0,0,15.3-4.8,16.9,11.3c0,0-11.3-1.9-23.5,3.3c0,0-9.7,4-12.9,10.8c0,0-3.6,8.7,7.6,5.7C19.8,31.7,31.5,26.2,33.9,21.2z"/>
</svg>
